<?xml version="1.0" standalone="no"?>
<!DOCTYPE svg PUBLIC "-//W3C//DTD SVG 20010904//EN"
 "http://www.w3.org/TR/2001/REC-SVG-20010904/DTD/svg10.dtd">
<svg version="1.0" xmlns="http://www.w3.org/2000/svg"
 width="460.000000pt" height="460.000000pt" viewBox="0 0 460.000000 460.000000"
 preserveAspectRatio="xMidYMid meet">
<metadata>
Created by potrace 1.11, written by Peter Selinger 2001-2013
</metadata>
<g transform="translate(0.000000,460.000000) scale(0.100000,-0.100000)"
fill="#000000" stroke="none">
<path d="M2 4178 c2 -326 6 -422 16 -426 17 -5 15 -22 -3 -22 -13 0 -15 -128
-15 -1095 0 -987 2 -1095 16 -1095 50 0 75 43 79 135 3 85 2 83 30 107 19 16
22 24 13 30 -10 6 -10 8 1 8 11 0 11 3 1 15 -7 8 -9 22 -6 31 12 30 17 104 7
104 -5 0 -7 18 -4 40 4 24 1 46 -7 55 -7 8 -10 25 -6 39 3 14 2 28 -4 31 -5 3
-10 19 -10 35 0 17 -7 33 -17 39 -17 10 -17 10 0 11 12 0 16 4 10 13 -4 6 -9
19 -10 28 -1 9 -8 29 -14 45 -7 16 -12 32 -11 37 1 4 -2 7 -8 7 -5 0 -7 7 -4
15 4 8 12 15 20 15 11 0 10 10 -6 49 -10 27 -16 51 -13 54 3 3 -4 11 -15 18
l-21 13 21 18 c12 11 29 16 40 12 10 -3 18 -2 18 1 0 13 -27 33 -51 38 -23 4
-22 4 4 6 15 0 27 6 27 12 0 5 -5 7 -11 3 -8 -4 -8 0 0 15 10 18 9 21 -9 21
-27 0 -21 21 9 36 16 8 19 13 9 17 -11 5 -11 7 1 15 7 5 13 25 13 45 0 21 6
38 14 41 19 7 18 26 -2 26 -10 0 -14 6 -10 15 3 9 0 15 -9 15 -8 0 -15 4 -15
10 0 5 7 7 17 3 13 -5 15 -2 9 18 -8 24 -8 100 -1 107 10 10 124 13 148 3 l27
-11 0 -122 c0 -132 21 -241 60 -317 11 -22 20 -47 20 -56 0 -8 5 -15 10 -15 6
0 10 -6 10 -14 0 -8 7 -21 14 -29 12 -12 13 -18 3 -31 -12 -17 -47 -13 -47 5
0 4 7 6 15 3 11 -5 13 -2 9 10 -3 9 -10 16 -15 16 -4 0 -6 7 -2 15 3 9 -1 23
-9 33 -9 9 -17 24 -20 32 -2 8 -10 -93 -16 -225 -18 -359 -20 -397 -13 -430 7
-34 -26 -173 -57 -245 -11 -25 -24 -67 -27 -93 -8 -52 -26 -77 -55 -77 -9 0
-29 -15 -43 -33 -49 -64 -69 -80 -78 -66 -5 9 -2 17 9 23 9 5 19 12 22 16 3 4
14 12 25 19 18 11 17 12 -10 5 -45 -10 -50 -10 -55 1 -6 11 71 55 83 47 11 -6
57 19 57 31 0 5 -8 6 -17 2 -51 -21 -133 -42 -133 -34 0 5 6 9 14 9 23 0 29
19 12 36 -27 26 -36 6 -36 -82 0 -65 3 -84 12 -78 10 6 11 4 1 -7 -10 -10 -13
-158 -13 -671 l0 -658 177 2 176 3 36 50 c26 38 36 63 39 103 4 42 8 52 23 52
10 0 25 -10 33 -22 14 -20 17 -21 32 -7 14 14 13 17 -10 33 -41 26 -33 43 26
51 47 7 128 47 128 65 0 3 20 17 45 29 40 20 54 22 120 16 42 -4 78 -11 81
-16 3 -5 14 -14 26 -20 15 -8 19 -8 14 0 -5 7 10 11 46 12 53 1 57 1 81 -4 6
-1 12 5 12 13 0 16 -10 16 -109 4 -32 -4 -51 -2 -56 6 -4 6 -26 14 -48 17 -61
8 -72 28 -17 31 24 1 47 -3 51 -9 5 -8 8 -8 13 0 8 12 77 15 216 9 l90 -3 0
-28 c1 -15 -3 -27 -7 -27 -4 0 -8 5 -8 10 0 6 -11 10 -25 10 -14 0 -25 -5 -25
-11 0 -6 9 -9 20 -6 11 3 20 1 20 -4 0 -5 9 -9 20 -9 11 0 20 5 20 11 0 6 12
10 28 8 15 -1 41 4 57 11 l30 13 -35 7 -35 6 30 8 c17 4 35 9 42 11 7 2 10 -5
7 -20 -4 -24 -3 -24 43 -19 50 7 53 -10 3 -19 -14 -2 17 -3 68 -1 74 2 92 0
92 -12 0 -8 -10 -14 -26 -14 -20 0 -25 -4 -20 -16 3 -9 6 -18 6 -20 0 -2 9 -4
20 -4 11 0 20 -7 20 -15 0 -8 7 -15 15 -15 9 0 12 6 9 15 -5 11 1 15 19 15 22
0 28 -7 36 -37 14 -48 14 -63 1 -63 -5 0 -10 11 -10 24 0 14 -5 28 -11 32 -7
4 -9 -2 -7 -17 3 -23 -2 -25 -42 -20 -5 0 -10 8 -10 16 0 17 -18 19 -40 4 -11
-8 -12 -12 -2 -16 7 -2 19 -12 28 -20 8 -8 24 -13 34 -10 15 4 20 0 20 -14 0
-15 7 -19 32 -19 17 0 28 -3 24 -7 -4 -4 -23 -6 -42 -4 -24 2 -36 -2 -40 -13
-8 -22 -40 -20 -65 3 -16 15 -17 19 -5 24 8 3 23 3 34 0 11 -2 23 0 26 6 5 7
-4 11 -22 11 -24 0 -31 5 -35 28 -3 15 1 36 9 49 7 12 10 24 5 27 -8 5 -41
-35 -41 -50 0 -3 -10 -19 -21 -36 l-21 -29 21 -6 c23 -6 19 -23 -5 -23 -8 0
-27 -11 -42 -25 -15 -14 -32 -25 -39 -25 -7 0 -13 -7 -13 -15 0 -8 -6 -15 -14
-15 -7 0 -19 -7 -26 -15 -17 -21 -106 -21 -114 1 -7 18 19 84 33 84 8 0 25 47
26 74 0 5 -35 11 -77 13 l-78 5 0 -36 c0 -20 6 -52 14 -70 l14 -33 -67 2 c-36
1 -78 -4 -93 -10 -22 -9 -9 -10 67 -7 82 4 96 2 101 -13 4 -9 18 -21 31 -26
13 -5 22 -13 19 -18 -3 -4 119 -9 274 -10 225 -2 280 0 280 11 0 9 3 9 10 -2
9 -13 10 -13 10 0 0 13 2 13 11 0 9 -12 10 -12 5 3 -3 10 -6 44 -7 75 -1 42
-3 50 -8 32 -6 -18 -9 -6 -13 45 -2 39 -1 72 4 73 4 2 8 25 8 50 -1 44 -2 46
-15 28 -8 -11 -15 -16 -15 -10 0 5 -5 2 -11 -6 -11 -16 -8 50 12 295 6 72 9
202 6 290 -2 88 -1 129 3 90 l6 -70 2 56 c1 31 6 101 11 155 15 152 21 293 11
259 -7 -29 -8 -29 -9 -4 0 14 3 29 9 35 5 5 12 59 14 119 4 149 27 398 36 409
10 10 80 -12 80 -24 0 -5 7 -7 15 -4 8 4 15 1 15 -6 0 -6 5 -8 10 -5 5 3 10 1
10 -4 0 -6 4 -11 9 -11 14 0 6 33 -10 39 -27 11 -79 55 -79 67 0 16 -46 24
-59 11 -6 -6 -11 -22 -11 -36 0 -14 -10 -35 -22 -48 -12 -13 -23 -31 -24 -41
-7 -48 -28 -92 -45 -92 -14 0 -17 7 -14 32 3 17 9 36 15 42 15 15 12 53 -4 59
-7 3 -19 0 -25 -6 -13 -13 -14 -6 -2 26 5 14 11 55 13 92 2 50 7 69 19 76 18
9 32 69 17 69 -5 0 -8 8 -7 18 3 38 0 42 -36 36 -19 -3 -35 -1 -35 3 0 14 23
40 40 46 12 4 12 6 -2 6 -11 1 -15 7 -11 21 3 11 1 20 -5 20 -6 0 -13 8 -17
18 -3 11 -17 24 -31 31 -33 15 -26 25 8 12 14 -5 30 -5 40 0 15 8 16 5 8 -22
-8 -26 -7 -30 6 -25 9 3 18 6 20 6 2 0 4 5 4 11 0 5 -5 7 -11 3 -9 -5 -10 1
-5 20 4 16 2 26 -5 26 -6 0 -9 7 -6 15 4 8 1 17 -5 21 -7 5 -8 2 -3 -6 5 -8 4
-11 -3 -6 -6 4 -9 13 -5 22 3 9 9 11 17 5 8 -6 12 -1 13 20 1 16 -2 29 -7 29
-6 0 -10 -4 -10 -9 0 -10 -39 -3 -57 11 -16 13 -6 34 20 43 21 7 20 8 -6 12
-15 2 -27 8 -27 13 0 5 6 7 14 4 16 -6 56 12 56 25 0 5 -14 8 -30 7 l-31 -2
26 23 c14 13 30 21 35 18 20 -12 9 8 -17 33 -33 31 -55 37 -51 14 2 -12 -4
-17 -18 -16 -12 0 -21 -7 -21 -18 -1 -10 2 -18 8 -18 5 0 9 -5 9 -11 0 -8 -5
-8 -15 1 -23 19 -18 44 13 67 39 29 34 97 -6 91 -11 -2 -16 3 -13 12 2 8 3 29
4 45 0 17 2 22 4 13 8 -31 26 -20 20 11 -4 18 -2 31 5 33 9 3 7 17 -5 49 -20
53 -22 75 -4 77 6 0 22 3 34 5 14 4 24 0 28 -11 5 -15 9 -13 25 8 24 31 25 37
3 43 -13 3 -10 5 7 6 22 1 23 3 8 12 -22 12 -46 53 -28 47 6 -2 11 -7 10 -11
0 -5 14 -20 32 -35 23 -19 32 -34 30 -50 -2 -13 1 -36 6 -51 7 -19 5 -54 -4
-112 -19 -119 -17 -230 6 -324 22 -87 25 -141 11 -177 -5 -13 -5 -62 -1 -109
10 -112 43 -180 101 -209 22 -12 42 -27 45 -35 3 -8 15 -17 26 -21 11 -3 24
-19 30 -34 10 -30 36 -37 151 -42 26 -1 47 -7 47 -12 0 -6 5 -4 10 4 5 8 10
11 10 5 0 -5 20 -10 45 -10 37 0 41 1 25 10 -18 9 -19 13 -7 29 9 12 19 16 26
11 10 -6 11 -3 3 12 -6 10 -7 25 -3 32 10 15 118 71 139 71 19 0 105 88 97
100 -9 14 4 52 16 45 5 -4 9 10 9 29 0 20 5 36 10 36 6 0 10 11 10 24 0 14 5
28 10 31 6 3 10 13 10 21 0 8 -4 12 -10 9 -6 -4 -10 5 -10 19 0 14 5 26 10 26
6 0 10 20 10 44 0 34 6 52 24 71 14 15 28 40 31 57 4 17 19 56 33 87 22 50 39
146 23 136 -7 -3 -18 40 -41 158 -6 31 -15 55 -20 52 -8 -5 -25 42 -21 63 1 6
-3 12 -9 12 -17 0 -11 18 9 25 11 3 22 13 25 22 6 14 4 14 -11 2 -15 -12 -16
-12 -10 4 3 9 4 17 1 17 -2 0 -8 -10 -13 -22 -4 -12 -11 -17 -14 -11 -4 6 4
31 17 56 12 26 18 44 12 40 -6 -3 -5 0 2 8 20 21 14 64 -13 93 l-25 27 0 -70
c0 -69 -28 -198 -55 -251 -13 -26 -27 -127 -29 -220 -2 -41 4 -65 21 -96 27
-49 28 -64 6 -112 -22 -48 -92 -152 -101 -152 -5 0 -14 -15 -20 -34 -15 -40
-32 -46 -152 -52 -47 -3 -91 -7 -99 -9 -11 -4 -11 -2 -3 8 7 8 9 17 5 20 -10
11 -23 8 -23 -5 0 -7 -11 -18 -25 -25 -15 -6 -25 -7 -25 -1 0 5 -5 6 -10 3 -6
-3 -13 1 -16 9 -3 9 -12 16 -20 16 -8 0 -27 14 -43 30 -32 34 -32 70 0 70 11
0 19 5 19 10 0 6 -8 10 -17 10 -10 0 -14 3 -8 8 17 12 15 70 -3 77 -13 5 -10
10 16 25 41 25 39 63 -6 107 -18 17 -29 34 -24 37 8 5 9 33 3 80 -1 4 -8 6
-16 3 -8 -4 -17 -2 -20 4 -4 5 -10 7 -15 4 -5 -3 -5 8 0 24 6 21 5 31 -3 35
-9 3 -8 5 1 5 6 1 12 8 12 17 0 8 -4 13 -10 9 -9 -6 -11 37 -4 81 2 12 25 34
54 52 56 35 61 47 26 63 -14 7 -22 17 -20 23 3 7 -16 20 -40 30 -39 16 -44 21
-35 37 5 11 7 19 4 19 -3 0 -1 9 5 21 7 11 17 18 24 16 7 -3 19 -1 27 4 11 6
11 11 1 21 -7 7 -12 8 -12 1 0 -6 -14 -13 -30 -16 -18 -4 -30 -13 -30 -22 0
-9 -5 -13 -11 -10 -6 4 -8 13 -5 21 8 20 -7 17 -36 -6 -22 -17 -29 -18 -52 -7
-26 12 -35 27 -15 27 6 0 9 7 6 15 -4 8 -2 17 3 20 6 4 10 15 10 26 0 10 5 19
11 19 5 0 8 -4 5 -8 -3 -5 10 -14 28 -20 27 -10 40 -9 71 4 20 8 44 13 51 10
16 -6 20 29 4 39 -6 3 -10 12 -10 18 1 7 9 1 20 -11 16 -19 26 -22 49 -17 28
6 29 8 19 31 -7 14 -17 23 -25 20 -7 -3 -13 0 -13 6 0 6 -7 19 -15 28 -13 14
-11 16 19 12 26 -3 36 -10 40 -28 10 -40 52 -2 47 44 -1 6 3 12 9 12 9 0 14
-14 11 -32 0 -5 5 -8 12 -8 8 0 18 -10 24 -22 8 -19 6 -25 -11 -33 -22 -11
-22 -11 -13 -150 1 -22 -3 -46 -10 -53 -29 -30 -4 -58 26 -29 10 10 15 8 26
-7 8 -10 16 -23 17 -27 4 -13 143 -65 209 -78 34 -7 37 -6 37 15 -1 13 -4 21
-9 18 -5 -3 -9 0 -9 5 0 6 -4 11 -10 11 -15 0 -50 38 -50 55 0 8 -4 15 -10 15
-5 0 -10 -5 -10 -12 0 -6 -3 -9 -6 -6 -3 4 0 17 7 30 11 21 11 22 -5 9 -9 -8
-20 -10 -24 -6 -4 4 -1 10 5 12 18 6 16 24 -4 38 -11 8 -14 18 -8 31 4 10 8
22 7 26 -1 4 5 5 13 2 18 -7 20 7 3 24 -9 9 -8 12 5 12 11 0 17 8 17 25 0 14
-4 25 -10 25 -5 0 -10 -4 -10 -10 0 -5 -4 -10 -8 -10 -5 0 -9 7 -9 15 0 8 3
12 7 10 4 -2 12 7 18 20 7 14 16 25 21 25 5 0 11 7 14 14 4 10 1 13 -8 10 -17
-7 -43 16 -38 33 6 17 -15 53 -30 50 -7 -1 -13 10 -15 26 -2 15 -8 27 -13 27
-5 0 -9 5 -9 12 0 6 -7 19 -15 28 -13 15 -14 25 -5 66 12 54 6 114 -13 114
-13 1 -47 62 -47 86 0 10 6 14 15 10 14 -5 52 9 65 25 3 3 23 10 45 14 22 5
43 9 48 10 4 2 11 3 16 4 18 2 50 67 44 89 -5 21 -33 32 -33 13 0 -8 -31 -23
-79 -36 -16 -5 -21 -4 -17 4 4 6 0 14 -8 17 -9 3 -16 12 -16 19 0 7 -7 16 -15
19 -9 3 -15 14 -13 23 5 27 -67 32 -74 5 -3 -10 -13 -19 -22 -19 -36 0 -8 37
35 46 23 5 34 13 33 24 -2 26 43 21 70 -7 35 -34 56 -40 56 -15 0 11 -6 19
-12 17 -25 -5 -59 22 -53 41 3 12 0 21 -9 24 -17 7 -30 -8 -21 -23 3 -5 1 -10
-6 -10 -8 0 -9 11 -5 36 6 30 4 36 -13 41 -19 5 -19 6 5 30 19 19 22 28 14 43
-10 20 -71 37 -89 26 -5 -4 -12 -2 -16 4 -3 5 -3 10 2 10 4 0 17 12 27 27 11
14 14 23 8 19 -8 -5 -11 0 -9 16 5 27 30 36 108 37 66 1 105 -21 155 -85 33
-45 47 -100 44 -176 -1 -42 1 -48 18 -48 24 0 46 -24 39 -42 -4 -8 -6 -7 -6 5
-1 9 -5 17 -9 17 -4 0 -6 -16 -4 -36 3 -27 7 -33 14 -23 7 10 8 4 3 -16 -9
-42 -21 -52 -45 -37 -23 14 -31 15 -28 5 1 -5 -4 -32 -10 -61 -18 -80 -15
-162 7 -198 10 -17 41 -48 67 -70 27 -21 74 -62 105 -91 31 -28 69 -55 85 -59
124 -30 176 -110 179 -270 0 -51 6 -98 12 -105 27 -34 45 -143 39 -239 -6 -97
-14 -134 -60 -254 -15 -39 -26 -89 -26 -116 0 -85 -78 -324 -125 -380 -19 -24
-26 -50 -11 -44 7 3 16 -2 20 -12 6 -16 -7 -31 -46 -54 -14 -9 -16 -7 -11 6 4
12 3 15 -5 10 -15 -9 -15 -29 -1 -43 13 -13 42 -6 33 8 -3 5 2 9 10 9 9 0 16
7 16 16 0 8 5 12 10 9 8 -5 7 -11 0 -20 -13 -15 2 -55 20 -55 6 0 10 -7 10
-15 0 -8 -7 -15 -15 -15 -8 0 -15 -4 -15 -10 0 -5 6 -10 14 -10 7 0 16 -14 20
-31 4 -20 10 -28 17 -23 8 4 9 3 5 -4 -4 -7 2 -33 13 -58 12 -26 21 -50 21
-54 0 -16 31 -82 36 -77 3 3 0 16 -7 29 -7 12 -18 47 -25 76 -11 48 -11 53 4
50 10 -2 16 -11 14 -23 -2 -15 -1 -17 6 -6 7 10 17 11 38 4 l29 -10 2 -174 c2
-103 -1 -168 -6 -160 -5 8 -7 20 -4 28 3 7 -2 16 -11 19 -9 3 -13 10 -10 15 3
5 -2 6 -10 3 -11 -4 -16 0 -16 11 0 9 -4 14 -9 11 -10 -7 -3 -46 8 -46 4 0 7
-9 7 -20 0 -27 -14 -25 -26 2 -5 13 -9 19 -10 13 0 -5 -4 -4 -9 4 -5 8 -7 30
-4 48 5 28 1 39 -22 64 -16 16 -24 29 -18 29 6 0 13 -6 16 -12 3 -7 4 -3 4 10
-1 12 -5 22 -9 22 -4 0 -8 4 -8 10 0 5 7 6 17 3 11 -4 14 -3 9 5 -4 7 -2 12 3
12 20 0 12 14 -38 68 -29 32 -56 52 -69 52 -12 0 -22 4 -22 9 0 14 37 20 49 8
14 -14 14 -2 0 24 -5 11 -14 17 -19 14 -5 -3 -11 -1 -15 5 -3 5 3 10 14 10 12
0 21 5 21 10 0 6 -5 10 -11 10 -5 0 -8 3 -5 8 2 4 -13 27 -34 52 l-38 44 -22
-44 c-37 -73 -52 -141 -54 -238 -1 -92 -1 -93 -24 -87 -17 4 -22 2 -16 -6 4
-7 3 -9 -3 -6 -6 4 -20 -5 -33 -18 -22 -24 -23 -34 -33 -282 -8 -188 -7 -312
2 -458 6 -110 11 -247 11 -305 1 -80 3 -101 11 -86 6 10 9 33 6 51 -3 18 -3
36 1 39 3 4 7 27 9 53 1 26 9 53 18 62 15 15 16 11 8 -49 -4 -36 -8 -102 -8
-148 0 -75 -2 -82 -19 -80 -18 3 -19 -7 -22 -245 l-2 -247 103 0 c112 0 114 1
122 65 2 17 15 66 29 110 13 44 26 90 29 103 2 12 7 27 10 33 24 37 25 297 2
359 -12 32 -13 48 -5 57 8 10 8 20 -1 39 -6 14 -11 42 -11 62 -1 20 -7 55 -15
77 -8 22 -15 50 -15 62 0 12 -8 26 -17 32 -16 9 -16 12 -3 24 24 23 93 57 116
57 18 0 23 -9 33 -63 6 -34 14 -74 17 -90 4 -19 12 -27 27 -28 21 0 21 -1 2
-9 -18 -8 -18 -9 5 -10 19 -2 20 -4 7 -7 -16 -4 -17 -12 -12 -57 4 -28 7 -111
8 -184 2 -120 1 -132 -16 -132 -10 0 -22 -11 -27 -26 -13 -34 -13 -35 7 -32
14 2 19 -7 24 -42 4 -25 10 -54 14 -66 4 -13 1 -25 -9 -33 -14 -11 -16 -11
-16 3 0 10 5 14 10 11 12 -8 13 5 1 24 -8 12 -11 9 -17 -13 -5 -20 -9 -24 -15
-14 -22 35 -53 -24 -119 -227 -31 -95 -46 -89 178 -81 108 4 239 9 290 12 65
3 92 2 87 -5 -4 -8 34 -11 122 -11 l128 1 43 37 c43 39 52 54 30 51 -7 -1 -30
-1 -52 0 -32 1 -36 3 -27 15 9 10 27 13 62 10 49 -4 49 -4 49 26 0 16 5 30 10
30 6 0 10 6 10 13 0 9 -12 13 -35 12 -20 -1 -38 2 -41 6 -3 5 2 9 10 9 9 0 16
6 16 13 0 9 2 9 8 0 6 -9 13 -7 26 9 15 17 20 18 27 7 7 -11 9 -10 9 4 0 10 5
15 10 12 5 -3 10 -15 10 -26 0 -11 -5 -17 -10 -14 -5 3 -10 2 -10 -4 0 -5 5
-13 11 -17 8 -4 7 -9 -2 -15 -27 -16 8 -33 65 -30 48 2 57 -1 80 -26 14 -15
33 -49 42 -75 15 -47 16 -48 59 -48 44 0 60 15 49 45 -8 20 22 30 42 14 9 -7
20 -23 25 -36 l9 -23 265 0 265 0 -1 170 c0 155 -1 169 -17 164 -15 -5 -15 -5
1 6 14 9 17 27 17 119 l0 109 -40 36 c-22 20 -40 39 -40 43 0 4 5 2 12 -5 7
-7 25 -12 40 -12 l28 0 0 377 c0 306 -3 379 -14 392 -7 9 -17 27 -20 41 l-7
25 20 -24 21 -23 0 50 c0 27 -7 65 -15 83 -12 28 -21 26 -16 -3 0 -4 -16 -20
-37 -35 -40 -31 -71 -63 -72 -77 0 -14 -61 -86 -72 -86 -6 0 -23 -11 -39 -25
l-30 -24 25 -7 c34 -8 66 4 66 25 0 10 6 24 14 30 8 6 19 25 26 41 7 17 16 30
21 30 9 0 25 -112 21 -145 -2 -17 0 -18 9 -5 8 12 10 8 6 -15 -3 -18 0 -38 9
-49 16 -23 19 -65 4 -67 -5 -1 -19 -2 -29 -3 -11 0 -26 -7 -32 -14 -7 -6 -21
-12 -31 -12 -10 0 -18 -5 -18 -11 0 -7 -9 -9 -22 -6 -12 4 -28 1 -35 -5 -9 -7
-13 -7 -13 1 0 19 -17 12 -34 -14 -12 -19 -14 -30 -7 -43 9 -14 10 -13 11 9 0
22 5 28 33 32 51 8 217 -15 217 -29 0 -7 -16 -14 -37 -16 l-38 -4 35 -10 c24
-7 35 -16 35 -30 0 -19 -3 -20 -75 -12 -33 3 -134 -12 -144 -22 -9 -9 11 -15
37 -11 4 0 7 -5 7 -12 0 -7 -10 -13 -22 -14 -11 -1 -25 -8 -29 -15 -13 -21 1
-162 17 -174 12 -10 12 -13 2 -17 -19 -8 11 -27 31 -19 9 3 12 1 8 -3 -4 -5 3
-15 15 -22 23 -13 22 -13 -32 -16 -14 -1 -25 -6 -25 -12 0 -5 4 -43 8 -82 6
-55 13 -75 26 -83 24 -12 36 -51 13 -43 -12 5 -14 1 -8 -20 5 -20 3 -27 -8
-27 -12 0 -31 63 -29 98 0 6 -6 12 -14 12 -8 0 -12 4 -8 9 3 5 -1 16 -9 24
-11 11 -12 17 -3 26 8 8 7 11 -6 11 -9 0 -17 7 -17 15 0 8 -6 15 -13 15 -7 0
-14 11 -15 25 -1 14 -12 42 -25 63 -13 20 -31 60 -41 87 -10 28 -23 54 -27 60
-5 5 -9 18 -9 30 0 11 -7 29 -15 39 -8 11 -15 36 -15 55 0 20 -4 50 -9 68 -7
22 -6 33 2 36 7 3 3 8 -8 11 -40 14 -127 61 -143 79 -15 17 -15 17 1 11 10 -3
17 -1 17 6 0 6 5 8 10 5 12 -8 13 8 1 21 -5 5 -12 19 -16 32 -9 31 19 29 68
-3 24 -17 37 -21 37 -13 0 20 -37 48 -63 48 -32 0 -85 56 -69 72 9 9 12 8 12
-5 0 -10 8 -17 20 -17 11 0 20 -4 20 -10 0 -5 7 -10 15 -10 8 0 15 4 15 9 0
15 -31 42 -41 36 -5 -4 -6 1 -3 9 4 10 1 16 -8 16 -10 0 -22 23 -33 63 -10 34
-21 66 -25 70 -11 12 -4 -51 6 -65 12 -16 12 -113 0 -125 -4 -4 -13 0 -20 11
-41 69 -52 80 -79 81 -15 1 -27 -2 -27 -7 0 -7 14 -12 31 -10 4 1 15 -8 24
-18 10 -11 14 -20 9 -20 -5 0 -4 -4 1 -8 30 -22 82 -161 109 -292 8 -41 22
-96 30 -121 12 -40 12 -46 0 -46 -8 0 -13 6 -10 14 4 10 1 11 -13 4 -18 -10
-61 -4 -61 8 0 13 -35 9 -52 -7 -13 -11 -21 -12 -31 -4 -14 12 -57 5 -57 -9 0
-5 33 -9 74 -9 82 0 108 -14 45 -24 -22 -4 -37 -11 -34 -16 3 -6 1 -10 -4 -10
-6 0 -11 -4 -11 -10 0 -5 11 -10 24 -10 13 0 29 -6 35 -14 11 -13 4 -14 -46
-10 -129 11 -145 14 -133 30 7 7 16 12 20 9 5 -3 11 -1 14 4 6 9 -22 26 -38
22 -4 -1 -17 1 -27 4 -15 5 -17 10 -9 25 14 26 13 30 -11 30 -16 0 -20 -5 -16
-20 4 -17 0 -20 -31 -21 -50 -1 -87 -13 -87 -27 0 -6 -9 -18 -20 -27 -14 -12
-16 -18 -7 -21 6 -3 12 -12 12 -20 0 -16 16 -19 25 -4 3 6 1 10 -5 10 -8 0 -8
6 0 20 11 21 70 29 70 10 0 -5 -5 -10 -11 -10 -5 0 -7 -5 -4 -10 3 -6 -1 -10
-10 -10 -9 0 -13 5 -10 10 3 6 1 10 -4 10 -6 0 -11 -9 -11 -19 0 -21 30 -37
39 -22 10 15 58 24 65 12 4 -6 24 -11 45 -11 21 0 53 -7 71 -16 25 -13 40 -14
65 -7 20 7 39 7 49 1 9 -5 26 -6 37 -3 14 5 25 1 34 -12 9 -10 14 -13 15 -5 0
6 10 12 23 12 29 0 51 15 43 29 -4 6 -2 11 3 11 6 0 11 -4 11 -9 0 -5 3 -16 6
-25 4 -11 -4 -16 -33 -21 -21 -3 -46 -10 -56 -16 -12 -6 -26 -5 -45 5 -15 8
-43 13 -62 11 -19 -2 -39 -4 -43 -4 -21 -2 7 -21 31 -21 15 0 34 -5 42 -10 11
-7 6 -10 -20 -11 -28 0 -31 -2 -15 -9 12 -4 -5 -6 -41 -3 -40 4 -64 2 -68 -6
-11 -17 -60 -13 -82 7 -11 12 -25 16 -34 12 -8 -4 -37 -13 -64 -19 -43 -10
-50 -9 -61 6 -12 16 -15 14 -34 -17 -13 -23 -17 -36 -10 -41 23 -14 -10 -18
-127 -17 -66 1 -125 -2 -132 -6 -28 -17 -6 -23 91 -24 204 0 841 -13 845 -16
8 -8 -370 -18 -744 -19 l-402 -2 -6 65 c-3 39 -2 66 4 68 6 2 10 11 10 19 0 9
8 22 18 30 12 9 13 13 3 11 -8 -2 -17 6 -19 17 -4 17 -2 18 12 6 12 -10 20
-11 27 -4 7 7 0 12 -21 17 -18 3 -36 4 -40 1 -9 -6 -24 61 -16 73 3 5 23 7 45
5 22 -1 43 2 46 7 3 6 -1 10 -9 10 -20 0 -21 19 -1 26 17 7 48 -14 40 -26 -3
-5 -1 -11 5 -15 5 -3 10 -2 10 4 0 5 8 11 18 14 14 3 13 6 -8 14 -25 11 -24
11 13 18 38 7 52 25 19 25 -10 0 -23 5 -30 12 -9 9 -12 9 -12 -3 0 -8 -8 -15
-18 -16 -14 -1 -19 6 -19 28 0 25 3 28 25 22 17 -4 23 -2 18 6 -4 6 -20 11
-35 11 -15 0 -31 3 -35 7 -11 12 -40 12 -53 1 -24 -19 -14 -31 22 -25 l35 6
-18 -24 c-9 -14 -24 -25 -32 -26 -62 -5 -88 -5 -84 3 3 4 14 8 25 8 17 0 19 8
20 83 1 45 1 86 0 91 -5 26 12 42 44 44 33 3 38 -3 34 -34 -1 -10 24 -23 33
-18 12 7 10 52 -2 59 -6 4 -22 9 -37 11 -36 7 -48 15 -33 24 7 4 9 13 6 19 -4
6 -12 9 -17 6 -5 -4 -9 1 -9 9 0 9 -15 22 -34 30 -33 14 -61 47 -50 59 3 3 -2
17 -11 31 -11 17 -13 26 -6 26 7 0 9 4 6 10 -3 5 -7 26 -9 47 -1 20 -8 39 -14
41 -7 2 -12 9 -12 15 0 5 3 7 7 4 11 -12 32 27 26 51 -3 15 -1 22 10 22 15 0
30 -79 31 -167 1 -23 5 -45 9 -49 4 -5 5 -1 1 9 -9 26 5 21 16 -6 6 -15 9 5 8
71 0 51 -5 95 -10 98 -5 3 -5 11 2 19 7 8 12 86 13 211 l2 198 40 8 c22 5 64
20 93 33 29 14 62 25 73 25 15 0 19 5 15 15 -7 20 16 19 56 -1 17 -9 40 -13
54 -10 45 12 214 8 230 -4 9 -9 33 -11 72 -6 37 4 94 0 162 -12 58 -10 113
-16 122 -14 11 2 20 20 27 50 5 26 8 49 5 51 -2 2 -4 -1 -4 -7 0 -17 -62 -15
-85 2 -19 13 -17 15 18 21 20 4 47 5 60 1 33 -8 78 -52 71 -69 -3 -8 -1 -18 5
-22 6 -3 9 0 5 8 -7 18 14 33 27 20 6 -6 2 -17 -9 -29 -10 -10 -16 -26 -14
-36 2 -9 -2 -19 -7 -23 -6 -3 -11 -13 -11 -21 0 -19 48 -19 69 0 11 10 22 12
31 6 12 -8 12 -11 -2 -27 -8 -10 -19 -28 -22 -40 -4 -12 -21 -34 -37 -48 -25
-21 -29 -30 -24 -53 4 -20 1 -33 -10 -42 -23 -19 -18 -36 14 -50 21 -8 35 -9
48 -1 17 10 16 10 -4 11 -29 0 -53 10 -53 22 0 5 20 7 48 3 33 -5 43 -3 32 4
-11 8 -8 9 15 6 17 -2 45 -4 63 -4 27 -1 32 -5 32 -25 0 -13 5 -26 11 -28 6
-2 13 -30 14 -62 4 -58 30 -115 45 -100 14 14 -1 94 -16 94 -19 0 -18 10 3 25
14 10 15 16 5 28 -7 8 -10 30 -7 54 3 29 1 44 -10 53 -8 7 -15 21 -15 32 0 11
-4 16 -11 12 -6 -3 -8 -17 -5 -29 5 -20 3 -22 -15 -18 -12 4 -18 11 -15 20 3
8 6 28 6 45 0 29 1 30 34 24 28 -5 39 -2 55 15 l20 22 27 -26 c23 -23 35 -27
83 -27 61 0 101 8 101 20 0 4 -17 14 -37 23 l-38 15 32 1 c30 1 58 20 31 22
-7 0 -3 5 8 11 18 8 29 5 60 -16 l39 -26 3 67 c3 65 2 69 -27 95 -17 15 -31
30 -31 33 0 4 -13 20 -30 38 -16 18 -30 36 -30 40 0 5 -4 5 -10 2 -6 -3 -10 3
-10 14 0 12 -4 21 -9 21 -5 0 -12 8 -15 18 -3 9 -20 33 -36 52 -22 25 -29 42
-25 58 10 39 7 233 -4 246 -10 12 -27 110 -24 136 1 8 5 45 8 82 3 37 14 87
24 112 14 32 16 46 8 49 -9 3 -9 9 0 25 10 17 9 25 -8 45 -19 26 -38 98 -32
128 6 27 129 56 150 35 8 -8 15 -218 17 -481 1 -101 -5 -193 -18 -282 l-20
-131 23 -24 c13 -13 38 -62 57 -108 19 -45 36 -85 39 -88 3 -3 5 425 5 950 l0
956 -40 7 c-36 6 -40 10 -34 28 4 12 13 27 20 34 7 8 10 21 7 29 -4 12 -1 15
13 12 10 -1 21 -14 25 -28 4 -14 7 116 8 288 l1 312 -335 0 c-351 0 -340 1
-335 -43 1 -10 -3 -24 -9 -31 -6 -7 -9 -25 -8 -42 1 -19 -2 -28 -10 -27 -7 2
-13 -3 -13 -11 0 -8 -8 -13 -17 -11 -10 2 -22 4 -26 4 -5 1 -6 5 -2 10 6 11
-48 77 -77 92 -28 15 -55 2 -61 -30 -3 -16 -13 -36 -22 -44 -8 -9 -20 -39 -25
-68 -12 -63 -12 -59 0 -59 6 0 10 9 10 21 0 18 2 19 15 5 8 -8 15 -23 15 -34
0 -11 10 -26 22 -34 19 -13 23 -25 23 -69 l0 -54 -53 -5 c-29 -3 -58 -3 -64 1
-10 7 -9 74 8 320 l7 96 40 1 c22 1 43 4 45 7 3 3 -351 5 -785 5 -623 0 -793
-3 -797 -12 -5 -10 -7 -10 -12 0 -4 9 -43 12 -147 11 -105 0 -138 -3 -126 -11
13 -9 11 -16 -22 -50 -20 -22 -46 -39 -56 -38 -41 5 -51 0 -46 -19 3 -13 15
-21 36 -23 17 -2 32 -8 34 -14 6 -19 -36 -24 -53 -6 -13 13 -17 13 -25 1 -11
-18 -11 -26 1 -34 6 -4 7 -12 3 -18 -4 -7 -8 -19 -10 -27 -3 -20 -30 -38 -75
-51 -22 -5 -38 -16 -38 -24 0 -28 -18 -15 -26 18 -10 43 -11 188 -1 194 4 2 5
8 2 12 -2 5 15 6 39 4 40 -5 44 -3 50 20 5 22 11 25 43 22 21 -1 46 -6 57 -10
20 -9 47 3 54 25 3 9 -2 11 -22 6 -14 -3 -26 -2 -26 3 0 5 10 12 23 14 12 2
-389 5 -891 6 l-913 1 3 -422z m4290 401 c11 -6 16 -19 14 -36 -3 -22 -10 -29
-32 -33 -34 -6 -59 13 -66 51 -4 23 -1 25 31 26 20 1 43 -3 53 -8z m-2182 -20
c0 -5 5 -7 10 -4 6 3 10 1 10 -4 0 -6 -13 -11 -29 -11 -30 0 -48 -15 -46 -40
0 -8 -4 -18 -10 -22 -13 -9 -51 -10 -42 -1 4 3 2 12 -4 19 -6 8 -8 25 -5 38 6
25 9 26 99 34 9 1 17 -3 17 -9z m1943 -6 c-7 -2 -19 -2 -25 0 -7 3 -2 5 12 5
14 0 19 -2 13 -5z m57 -23 c-18 -18 -24 -20 -31 -9 -14 22 -11 27 19 31 36 5
37 3 12 -22z m-3691 -47 c-1 -17 -3 -21 -6 -10 -6 21 -63 24 -63 3 0 -24 -38
-26 -54 -2 -13 18 -15 19 -15 4 -1 -23 -7 -23 -37 5 l-24 23 100 2 100 2 -1
-27z m1726 -23 c-1 -11 -7 -26 -14 -33 -10 -9 -11 -8 -5 8 7 18 6 19 -10 6 -9
-8 -15 -20 -12 -28 3 -7 -4 -29 -15 -48 -14 -23 -18 -41 -13 -53 9 -20 11 -28
13 -43 0 -6 8 -3 17 5 8 9 23 16 32 15 14 0 13 -2 -3 -9 -11 -5 -14 -9 -7 -9
6 -1 12 -11 12 -24 0 -13 -6 -29 -12 -35 -7 -7 -18 -32 -25 -55 -10 -39 -11
-40 -13 -12 -1 17 -2 33 -1 38 1 6 -14 11 -30 9 -13 -2 -20 51 -13 97 8 55 36
123 67 161 26 35 34 37 32 10z m1837 -30 c-5 -34 -10 -36 -37 -16 -16 12 -17
16 -6 30 7 9 21 16 30 16 14 0 17 -7 13 -30z m-3656 9 c-5 7 2 11 16 11 l23
-1 -24 -20 c-27 -22 -44 -21 -49 5 -3 15 -1 16 18 6 15 -8 20 -8 16 -1z m2144
-24 c0 -5 -5 -3 -10 5 -5 8 -10 20 -10 25 0 6 5 3 10 -5 5 -8 10 -19 10 -25z
m-460 -26 c0 -36 -15 -37 -47 -3 l-25 27 32 -7 c26 -5 31 -3 26 10 -3 8 -2 12
4 9 6 -3 10 -19 10 -36z m-1805 9 c44 -20 81 -178 51 -222 -19 -30 -20 -49 -4
-93 9 -26 9 -36 0 -45 -9 -9 -12 -9 -12 0 0 7 -5 12 -10 12 -7 0 -7 -7 0 -21
6 -11 9 -25 6 -32 -2 -7 -5 -4 -5 6 -2 31 -18 10 -19 -24 -1 -39 -12 -52 -12
-14 0 15 -7 33 -15 39 -9 6 -16 28 -17 49 -1 24 -6 37 -15 37 -10 0 -11 5 -4
18 7 13 7 22 -1 30 -6 6 -7 19 -3 29 13 30 22 108 24 191 1 28 3 52 6 52 2 0
16 -5 30 -12z m1645 -23 c0 -16 -27 -28 -36 -14 -7 12 15 41 27 33 5 -3 9 -11
9 -19z m646 -85 c-1 -17 -16 -31 -16 -15 0 3 0 12 0 20 0 8 4 15 9 15 4 0 8
-9 7 -20z m-9 -72 c-3 -8 -6 -5 -6 6 -1 11 2 17 5 13 3 -3 4 -12 1 -19z m-727
2 c-8 -5 -11 -12 -7 -16 4 -4 15 0 25 9 21 20 48 22 58 6 9 -15 -16 -30 -41
-24 -13 2 -32 -5 -49 -20 -36 -31 -66 -33 -66 -5 0 17 3 19 19 10 27 -14 31
-13 31 8 0 20 18 42 35 42 5 0 3 -4 -5 -10z m-140 -25 c0 -8 9 -19 20 -25 27
-15 16 -30 -21 -30 -22 0 -32 6 -38 23 -5 12 -6 28 -4 35 7 17 43 15 43 -3z
m405 -22 c3 -10 2 -19 -3 -21 -6 -2 -8 -11 -5 -21 3 -11 -2 -21 -11 -24 -17
-7 -21 18 -10 61 8 26 19 29 29 5z m-1919 -55 c4 -7 3 -8 -4 -4 -18 11 -14 -5
5 -26 15 -17 15 -20 3 -28 -8 -5 -15 -14 -15 -20 0 -5 -3 -10 -7 -10 -10 0
-11 2 -3 23 4 9 2 24 -5 32 -10 12 -10 18 0 30 15 18 17 18 26 3z m1924 -52
c0 -8 -9 -12 -22 -11 -34 4 -35 4 -14 20 21 16 36 12 36 -9z m24 -104 c1 -39
-2 -62 -8 -62 -8 0 -8 -3 0 -8 15 -10 26 -70 14 -77 -17 -10 -11 -53 8 -59 14
-5 18 -18 19 -62 2 -60 15 -86 34 -67 13 13 2 56 -12 48 -5 -4 -9 4 -9 17 0
18 2 20 10 8 8 -12 10 -9 10 13 0 16 -4 26 -10 22 -5 -3 -2 8 8 25 11 21 23
29 35 26 12 -3 17 2 17 17 0 18 3 16 21 -12 22 -36 22 -54 -1 -141 -13 -52
-16 -55 -52 -64 -21 -5 -28 -3 -28 9 0 11 -8 15 -25 12 -26 -3 -47 -17 -25
-17 7 0 10 -3 7 -6 -4 -4 -13 -1 -21 5 -9 7 -52 14 -98 16 -64 2 -76 1 -50 -6
31 -9 36 -29 7 -29 -7 0 -28 -12 -45 -26 -17 -15 -34 -24 -37 -20 -3 3 2 8 11
12 9 3 16 10 16 16 0 5 -4 6 -10 3 -5 -3 -21 5 -34 19 -23 26 -23 26 -41 6
-10 -11 -28 -20 -41 -20 -13 0 -25 -4 -29 -9 -3 -6 -22 -8 -43 -6 -20 2 -40 4
-44 4 -17 2 -6 18 23 35 16 10 37 15 45 12 9 -3 12 -1 9 4 -3 6 1 10 10 10 22
0 78 30 91 49 7 9 43 38 81 64 58 40 74 46 101 41 20 -4 34 -14 38 -28 7 -20
7 -20 14 -1 14 38 19 101 9 115 -8 11 -9 9 -4 -7 4 -16 2 -23 -8 -23 -7 0 -19
-11 -25 -25 -6 -14 -16 -25 -22 -25 -15 0 -12 16 5 30 9 7 14 19 11 27 -3 7 3
22 14 33 15 15 21 40 26 100 8 94 24 94 28 2z m1884 7 c3 -42 1 -51 -15 -55
-12 -3 -19 -16 -20 -37 -4 -46 -23 -88 -40 -85 -21 4 -51 57 -37 66 6 4 19 22
28 40 9 17 23 32 30 32 9 0 12 8 8 25 -3 17 1 27 12 31 9 3 13 10 10 15 -6 11
6 33 14 24 3 -3 8 -28 10 -56z m412 41 c-8 -5 -17 -7 -19 -4 -3 3 1 9 9 14 8
5 17 7 19 4 3 -3 -1 -9 -9 -14z m-720 -59 c7 -13 7 -22 0 -26 -6 -4 -7 -23 -4
-46 4 -25 3 -39 -4 -39 -6 0 -12 -11 -14 -25 -2 -19 -6 -22 -18 -15 -12 7 -12
12 -2 22 20 20 15 81 -9 96 -20 13 -20 14 -3 33 22 24 40 24 54 0z m-3473 -43
c-3 -7 -5 -2 -5 12 0 14 2 19 5 13 2 -7 2 -19 0 -25z m-17 -12 c0 -19 -4 -23
-20 -19 -11 3 -20 12 -20 20 0 8 4 12 9 8 5 -3 12 -1 16 5 10 16 15 12 15 -14z
m1995 14 c-3 -5 -10 -10 -16 -10 -5 0 -9 5 -9 10 0 6 7 10 16 10 8 0 12 -4 9
-10z m-2048 -37 c-3 -10 -5 -4 -5 12 0 17 2 24 5 18 2 -7 2 -21 0 -30z m70 -5
c-3 -8 -6 -5 -6 6 -1 11 2 17 5 13 3 -3 4 -12 1 -19z m2851 -37 c3 -39 2 -42
-20 -39 -18 2 -24 10 -26 37 -3 33 11 54 33 48 6 -2 11 -23 13 -46z m562 39
c0 -5 -2 -10 -4 -10 -3 0 -8 5 -11 10 -3 6 -1 10 4 10 6 0 11 -4 11 -10z
m-2090 -24 c6 -8 10 -25 8 -38 -4 -32 -42 -32 -46 0 -7 46 14 66 38 38z
m-1279 -74 c-6 -2 -11 -10 -11 -18 0 -16 -26 -19 -35 -4 -4 6 -1 9 6 8 7 -2
20 11 28 27 13 26 16 27 19 10 2 -10 -1 -21 -7 -23z m1899 -4 c0 -5 -4 -8 -10
-8 -5 0 -10 10 -10 23 0 18 2 19 10 7 5 -8 10 -18 10 -22z m-2073 0 c-3 -8 -6
-5 -6 6 -1 11 2 17 5 13 3 -3 4 -12 1 -19z m3573 -199 c0 -23 -4 -30 -17 -27
-23 4 -27 23 -8 42 22 22 25 21 25 -15z m-1577 1 c-3 -11 -9 -20 -14 -20 -11
0 -11 3 -3 24 9 23 23 20 17 -4z m-237 -7 c0 -10 -7 -23 -15 -29 -11 -9 -9
-11 9 -10 13 1 25 -5 28 -13 3 -10 0 -12 -11 -8 -9 3 -19 2 -21 -2 -7 -10 -46
-9 -46 2 0 11 44 77 51 77 4 0 6 -8 5 -17z m314 -23 c0 -5 -4 -10 -10 -10 -5
0 -10 5 -10 10 0 6 5 10 10 10 6 0 10 -4 10 -10z m45 0 c3 -5 1 -10 -4 -10 -6
0 -11 5 -11 10 0 6 2 10 4 10 3 0 8 -4 11 -10z m165 -17 c0 -20 -3 -24 -11
-16 -7 7 -9 19 -6 27 10 24 17 19 17 -11z m-357 7 c-13 -6 -20 -15 -17 -23 6
-18 -21 -43 -31 -27 -3 6 -12 7 -18 3 -15 -8 11 27 32 45 8 6 24 12 35 11 20
0 20 -1 -1 -9z m1654 -16 c8 -21 -13 -42 -28 -27 -13 13 -5 43 11 43 6 0 13
-7 17 -16z m-1727 -4 c0 -5 -5 -10 -11 -10 -5 0 -7 5 -4 10 3 6 8 10 11 10 2
0 4 -4 4 -10z m2002 -50 c22 -179 54 -303 91 -351 32 -42 32 -43 10 -69 -21
-24 -33 -26 -33 -5 0 9 -12 27 -27 41 -17 16 -23 28 -16 32 7 5 -2 45 -29 127
-26 79 -38 131 -34 152 5 34 -28 112 -48 114 -6 0 -2 4 9 9 11 5 31 8 45 7 22
-2 26 -8 32 -57z m-2338 9 c-8 -17 -13 -33 -10 -37 3 -3 6 0 6 8 0 10 3 10 15
0 18 -15 19 -36 3 -46 -7 -5 -8 -3 -3 6 5 9 4 11 -4 6 -7 -5 -16 -19 -22 -33
-5 -14 -14 -21 -20 -17 -15 9 -4 87 18 124 22 38 37 28 17 -11z m325 -2 c0 -9
-2 -9 -5 0 -3 7 -13 9 -22 6 -14 -4 -14 -3 -2 5 16 12 30 7 29 -11z m1689 -24
l3 -41 -36 0 c-35 0 -36 1 -33 37 2 22 8 35 16 34 6 -2 12 2 12 8 0 6 8 9 18
7 12 -2 18 -15 20 -45z m-1780 23 c6 -6 -11 -66 -19 -66 -5 0 -9 -8 -9 -17 -1
-10 -7 -29 -15 -43 l-15 -25 7 30 c10 39 9 95 -2 119 -7 17 -5 18 21 12 16 -4
30 -9 32 -10z m1830 -30 c3 -20 0 -27 -10 -24 -7 3 -14 17 -16 32 -3 20 0 27
10 24 7 -3 14 -17 16 -32z m-1798 4 c0 -5 -2 -10 -4 -10 -3 0 -8 5 -11 10 -3
6 -1 10 4 10 6 0 11 -4 11 -10z m2178 -50 c0 -9 -3 -7 -8 5 -5 11 -8 29 -8 40
0 16 2 15 8 -5 4 -14 8 -32 8 -40z m-2072 15 c10 -8 14 -15 8 -15 -5 0 -19 7
-30 15 -10 8 -14 15 -8 15 5 0 19 -7 30 -15z m-246 -10 c0 -8 -4 -15 -10 -15
-5 0 -10 7 -10 15 0 8 5 15 10 15 6 0 10 -7 10 -15z m2331 -92 c13 -15 12 -15
-8 -4 -24 12 -29 21 -14 21 5 0 15 -7 22 -17z m386 2 c0 -8 -4 -15 -9 -15 -4
0 -8 7 -8 15 0 8 4 15 8 15 5 0 9 -7 9 -15z m-2767 -41 c0 -8 -5 -12 -10 -9
-6 4 -8 11 -5 16 9 14 15 11 15 -7z m80 4 c0 -4 -5 -8 -11 -8 -6 0 -9 -7 -6
-15 4 -8 1 -17 -4 -21 -6 -3 -8 -18 -4 -33 4 -17 3 -23 -3 -16 -10 9 -16 49
-13 85 1 16 41 23 41 8z m2369 -10 c10 -28 31 -114 31 -130 0 -6 -11 -1 -25
12 -17 16 -25 34 -25 59 0 27 -3 32 -12 23 -7 -7 -20 -12 -30 -12 -10 0 -18
-4 -18 -9 0 -6 -8 -9 -18 -8 -15 1 -18 9 -17 36 1 28 6 37 25 42 52 14 80 10
89 -13z m-2199 -3 c0 -8 -2 -15 -4 -15 -2 0 -6 7 -10 15 -3 8 -1 15 4 15 6 0
10 -7 10 -15z m35 -15 c-3 -5 -11 -10 -16 -10 -6 0 -7 5 -4 10 3 6 11 10 16
10 6 0 7 -4 4 -10z m-420 -40 c-4 -12 -9 -19 -12 -17 -3 3 -2 15 2 27 4 12 9
19 12 17 3 -3 2 -15 -2 -27z m-1095 -16 c0 -8 -4 -12 -10 -9 -5 3 -10 10 -10
16 0 5 5 9 10 9 6 0 10 -7 10 -16z m1140 -43 c0 -39 -5 -63 -15 -71 -12 -10
-15 -6 -21 29 -4 22 -10 38 -15 35 -13 -8 2 29 20 48 26 28 31 21 31 -41z
m-1090 29 c0 -5 -5 -10 -11 -10 -5 0 -7 5 -4 10 3 6 8 10 11 10 2 0 4 -4 4
-10z m4067 -16 c-3 -3 -12 -4 -19 -1 -8 3 -5 6 6 6 11 1 17 -2 13 -5z m-2955
-106 c4 -28 -9 -149 -20 -177 -5 -15 -9 159 -3 192 3 17 20 5 23 -15z m-891
-155 c19 -49 3 -81 -34 -67 -20 7 -49 76 -37 88 6 6 10 21 10 34 l0 25 26 -28
c14 -15 30 -39 35 -52z m2555 39 c-17 -16 -18 -16 -5 5 7 12 15 20 18 17 3 -2
-3 -12 -13 -22z m791 1 c2 -6 -4 -10 -13 -9 -10 2 -20 8 -22 15 -3 8 3 12 14
9 9 -1 19 -8 21 -15z m308 -20 c-4 -16 -8 -40 -9 -55 -3 -37 -12 -44 -25 -20
-17 31 1 102 26 102 12 0 14 -6 8 -27z m-3975 -19 c0 -22 -2 -25 -15 -14 -8 7
-15 19 -15 26 0 8 7 14 15 14 10 0 15 -10 15 -26z m360 -109 c15 -18 30 -93
23 -111 -6 -16 -45 24 -58 62 -19 53 4 86 35 49z m826 -32 c1 -21 4 -49 7 -63
6 -22 5 -22 -5 3 -7 15 -15 27 -20 27 -4 0 -8 16 -8 35 0 49 25 46 26 -2z m68
2 c11 -8 17 -17 14 -20 -3 -3 -12 1 -20 8 -8 8 -23 17 -34 20 -18 4 -18 5 1 6
11 0 29 -6 39 -14z m2444 9 c12 -4 22 -13 22 -20 0 -18 -10 -18 -36 1 -12 8
-25 11 -29 7 -5 -4 -5 -1 -1 6 8 14 12 14 44 6z m-68 -44 c0 -11 -4 -20 -10
-20 -5 0 -10 9 -10 20 0 11 5 20 10 20 6 0 10 -9 10 -20z m-3385 -10 c-3 -5
-10 -10 -16 -10 -5 0 -9 5 -9 10 0 6 7 10 16 10 8 0 12 -4 9 -10z m1332 -77
c23 -24 39 -43 35 -43 -4 0 -12 -11 -19 -25 -9 -20 -8 -25 2 -25 7 0 15 -7 19
-15 3 -8 1 -15 -4 -15 -14 0 -12 -27 3 -34 9 -3 7 -8 -5 -16 -10 -6 -15 -18
-12 -28 5 -14 4 -14 -4 -2 -8 10 -7 18 0 28 13 15 -5 32 -32 31 -10 0 -8 -3 5
-9 18 -8 17 -9 -7 -9 -18 -1 -29 5 -33 19 -7 22 -25 28 -25 8 0 -30 -13 6 -17
49 -8 75 -6 111 9 126 18 19 35 11 85 -40z m1754 -14 c-6 -16 -10 -18 -10 -7
-1 22 12 55 16 42 2 -6 -1 -22 -6 -35z m408 -75 c29 -25 32 -52 8 -81 -5 -7
-7 -20 -3 -28 3 -8 1 -26 -5 -39 -9 -19 -7 -29 6 -50 10 -15 15 -29 12 -32 -8
-9 -49 65 -41 77 5 8 1 8 -15 0 -17 -10 -20 -9 -15 4 4 8 9 15 13 15 4 0 8 16
9 35 2 29 -1 35 -18 35 -11 0 -33 -14 -49 -32 -19 -22 -33 -29 -45 -25 -11 4
-16 13 -13 22 4 9 1 12 -9 8 -7 -3 -14 -11 -14 -19 0 -21 -18 -17 -25 6 -4 12
-1 27 5 35 10 12 9 15 -5 15 -15 0 -15 2 -4 16 15 18 94 60 84 45 -10 -17 11
-13 25 4 19 23 67 18 99 -11z m-2542 -16 c-3 -8 -6 -5 -6 6 -1 11 2 17 5 13 3
-3 4 -12 1 -19z m2218 -8 c-4 -6 -6 -44 -6 -85 0 -75 -5 -90 -32 -79 -11 4
-14 16 -10 45 4 25 2 39 -6 39 -18 0 -13 19 17 56 24 31 52 49 37 24z m-2075
-44 c0 -2 -7 -7 -16 -10 -8 -3 -12 -2 -9 4 6 10 25 14 25 6z m1710 -17 c0 -11
-3 -11 -24 -3 -23 9 -20 23 4 17 11 -3 20 -9 20 -14z m440 1 c0 -5 -5 -10 -11
-10 -5 0 -7 5 -4 10 3 6 8 10 11 10 2 0 4 -4 4 -10z m60 -82 c0 -4 -9 -8 -20
-8 -11 0 -20 -4 -20 -10 0 -5 5 -10 10 -10 6 0 10 -9 10 -19 0 -26 18 -37 26
-17 3 9 13 16 21 16 9 0 11 -5 6 -12 -4 -7 -10 -37 -13 -66 -5 -55 -24 -68
-26 -17 -1 32 -9 57 -32 92 -13 21 -15 22 -44 7 -16 -9 -32 -13 -36 -10 -9 9
31 34 45 29 8 -3 13 3 13 19 0 37 20 51 42 31 10 -9 18 -20 18 -25z m-2270 28
c0 -3 -4 -8 -10 -11 -5 -3 -10 -1 -10 4 0 6 5 11 10 11 6 0 10 -2 10 -4z
m-1553 -12 c-3 -3 -12 -4 -19 -1 -8 3 -5 6 6 6 11 1 17 -2 13 -5z m927 -9 c-4
-8 -10 -15 -16 -15 -5 0 -16 -7 -25 -15 -8 -9 -18 -14 -20 -11 -10 9 8 45 25
49 33 9 41 7 36 -8z m-114 1 c0 -3 -4 -8 -10 -11 -5 -3 -10 -1 -10 4 0 6 5 11
10 11 6 0 10 -2 10 -4z m-467 -26 c3 -11 3 -20 1 -20 -2 0 -8 9 -14 20 -6 11
-7 20 -2 20 6 0 12 -9 15 -20z m3597 1 c0 -16 -19 -23 -40 -16 -30 10 -24 25
10 25 17 0 30 -4 30 -9z m-3083 -37 c-3 -3 -12 -4 -19 -1 -8 3 -5 6 6 6 11 1
17 -2 13 -5z m3056 -6 c-4 -7 -12 -31 -18 -52 -10 -40 -35 -62 -35 -30 0 41
23 94 42 94 13 0 17 -4 11 -12z m-3549 -23 c6 -10 19 -27 29 -37 9 -10 17 -22
17 -26 0 -5 8 -17 19 -28 13 -14 20 -41 23 -92 5 -63 3 -76 -14 -95 -18 -20
-19 -20 -12 -2 18 47 -8 193 -33 188 -6 -1 -17 11 -24 27 -9 19 -16 25 -21 17
-5 -8 -8 -6 -8 6 0 9 -4 17 -9 17 -5 0 -8 -7 -7 -16 0 -9 -4 -19 -10 -21 -12
-4 -12 26 0 45 4 7 13 10 19 6 7 -3 4 1 -6 9 -14 11 -15 16 -5 20 19 8 30 3
42 -18z m1236 -44 c-1 -13 -4 -12 -15 3 -8 11 -15 27 -15 35 1 13 4 12 15 -3
8 -11 15 -27 15 -35z m2128 11 c2 -12 -1 -22 -6 -22 -14 0 -43 36 -35 44 14
13 38 1 41 -22z m42 -52 c0 -11 3 -19 8 -19 16 3 23 -2 17 -11 -10 -16 -45 8
-45 30 0 11 5 20 10 20 6 0 10 -9 10 -20z m-3439 -74 c-4 -47 -11 -71 -20 -74
-11 -4 -12 0 -6 14 5 11 10 39 10 64 1 25 3 50 5 55 1 6 2 15 0 20 -1 7 2 7 7
0 5 -5 7 -41 4 -79z m1339 70 c0 -3 -4 -8 -10 -11 -5 -3 -10 -1 -10 4 0 6 5
11 10 11 6 0 10 -2 10 -4z m2074 -32 c9 -3 14 -10 11 -15 -7 -10 -35 0 -35 12
0 11 3 11 24 3z m109 -30 c3 -3 -2 -14 -11 -24 -23 -24 -162 -36 -162 -14 0 8
5 14 11 14 5 0 8 3 5 8 -2 4 23 9 57 10 34 2 64 5 66 8 6 6 27 5 34 -2z
m-3048 -14 c-3 -5 -15 -10 -26 -10 -11 0 -17 5 -14 10 3 6 15 10 26 10 11 0
17 -4 14 -10z m181 -1 c4 -8 28 -9 73 -5 52 5 74 3 100 -10 24 -12 48 -15 87
-11 50 5 55 4 74 -23 11 -16 17 -31 13 -33 -21 -11 -62 -16 -68 -8 -3 6 -20 7
-38 4 -59 -12 -404 -12 -379 0 50 23 2 52 -52 31 -23 -9 -19 -24 6 -24 18 0
19 -3 10 -12 -12 -12 -114 -17 -202 -10 -19 1 -59 1 -87 -1 -29 -3 -53 -1 -53
2 0 4 18 8 40 9 62 4 93 19 87 41 -3 14 2 21 18 25 13 3 30 3 38 0 8 -3 21 2
30 10 17 17 42 22 33 7 -10 -16 98 -18 110 -3 7 10 25 13 56 11 25 -2 44 -1
41 4 -2 4 9 7 26 7 16 0 33 -5 37 -11z m2468 -7 c2 -4 -4 -9 -15 -9 -11 -1
-17 2 -14 8 7 11 22 12 29 1z m-141 -19 c-4 -10 -19 -14 -52 -12 -25 1 -56 -1
-68 -5 -13 -4 -30 -3 -40 3 -15 8 -14 10 12 16 17 4 35 8 40 9 6 2 33 3 62 3
41 1 50 -2 46 -14z m-1869 -39 c30 -11 5 -24 -47 -24 -50 1 -51 1 -27 15 27
16 50 18 74 9z m51 -14 c3 -5 -1 -10 -9 -10 -9 0 -16 5 -16 10 0 6 4 10 9 10
6 0 13 -4 16 -10z m1605 -50 c0 -6 -27 -10 -61 -10 -37 0 -58 4 -54 10 3 6 31
10 61 10 30 0 54 -4 54 -10z m-393 -22 c-3 -8 -6 -5 -6 6 -1 11 2 17 5 13 3
-3 4 -12 1 -19z m256 15 c-7 -2 -19 -2 -25 0 -7 3 -2 5 12 5 14 0 19 -2 13 -5z
m-2435 -25 c24 -6 42 -16 42 -24 0 -17 17 -18 23 -1 3 10 9 10 26 0 25 -15 53
-17 66 -4 15 14 58 18 62 6 3 -11 -133 -45 -179 -45 -16 0 -28 -4 -28 -9 0
-10 132 -21 262 -21 53 0 99 -4 102 -9 3 -5 -11 -16 -31 -24 -37 -14 -37 -14
51 -16 74 -1 87 2 82 14 -4 12 3 15 34 15 50 0 55 -2 53 -18 -1 -11 13 -12 65
-6 50 5 70 12 86 30 21 23 33 27 75 25 19 -1 21 -4 12 -15 -13 -16 -8 -20 30
-29 45 -11 129 27 129 58 0 5 -5 3 -10 -5 -8 -13 -10 -12 -10 3 0 9 -5 17 -11
17 -7 0 -9 -9 -6 -21 7 -25 -12 -34 -50 -24 -26 6 -27 7 -8 18 11 6 25 16 30
23 15 18 65 27 66 12 0 -7 7 1 14 17 16 35 19 16 6 -29 -30 -96 -42 -145 -56
-219 -9 -45 -27 -109 -40 -142 -13 -33 -41 -112 -61 -175 -19 -63 -41 -126
-47 -140 -6 -14 -10 -28 -9 -32 3 -12 -5 -9 -22 8 -9 8 -16 12 -16 7 0 -13
-132 -9 -172 5 -30 11 -46 11 -72 2 -22 -7 -58 -8 -95 -4 -38 4 -66 3 -73 -4
-17 -14 -112 -20 -118 -7 -3 6 11 11 30 13 20 2 45 14 59 28 13 14 30 23 37
20 8 -3 16 -1 19 5 4 5 11 7 16 4 5 -4 9 -1 9 4 0 6 15 11 33 11 46 0 66 15
40 29 -32 17 -160 23 -183 9 -17 -11 -22 -9 -36 10 -8 12 -19 20 -24 17 -4 -3
-10 3 -12 13 -5 17 -15 18 -89 15 -66 -3 -209 7 -304 21 -13 2 -18 21 -5 22 6
1 29 3 53 4 l42 2 -38 8 c-20 4 -40 10 -44 14 -11 11 18 26 50 26 15 0 27 5
27 10 0 6 7 10 15 10 8 0 15 5 15 11 0 7 -9 9 -22 6 -13 -4 -40 -2 -60 2 -22
5 -38 5 -38 0 0 -12 -47 -11 -55 1 -3 6 4 14 17 19 l23 9 -25 10 c-24 10 -24
11 -2 11 24 1 30 16 10 24 -9 3 -4 11 12 25 16 14 20 21 11 22 -8 0 -11 3 -8
7 12 12 71 14 101 3 22 -8 32 -7 38 2 11 18 10 4 -2 -27 l-10 -26 30 18 c17 9
30 23 30 29 0 13 31 21 83 23 16 0 33 4 38 7 18 11 0 21 -31 16 -16 -2 -30 0
-30 6 0 14 39 22 77 16 27 -4 32 -2 35 18 2 18 10 24 36 26 17 2 32 7 32 13 0
5 14 9 31 9 20 0 29 4 27 13 -7 18 -46 20 -73 3 -19 -13 -24 -13 -28 -2 -3 8
-3 24 0 35 5 19 1 21 -45 21 -28 0 -54 5 -57 10 -4 7 -12 7 -24 0 -27 -14
-137 -8 -133 8 1 8 -13 13 -40 14 -62 2 -64 2 -82 17 -14 12 -19 11 -36 -4
-29 -26 -24 -10 6 20 14 14 29 23 34 20 5 -3 21 2 35 11 15 10 25 12 25 5 0
-7 13 -4 33 7 41 21 68 24 125 10z m3497 -2 l27 -14 -36 -13 c-20 -7 -36 -17
-36 -21 0 -4 -4 -8 -10 -8 -5 0 -10 10 -10 21 0 17 5 20 25 17 17 -4 25 -1 25
9 0 8 -4 12 -9 8 -5 -3 -12 -1 -16 5 -9 14 8 12 40 -4z m-2767 -10 c3 -3 -11
-6 -31 -6 -20 0 -39 5 -42 10 -7 11 62 6 73 -4z m72 5 c0 -13 -37 -24 -50 -16
-6 4 -8 11 -5 16 8 12 55 12 55 0z m3170 -6 c7 -9 8 -15 2 -15 -5 0 -12 7 -16
15 -3 8 -4 15 -2 15 2 0 9 -7 16 -15z m-1940 -20 c7 -8 20 -15 29 -16 9 0 11
-3 4 -5 -11 -5 -73 22 -73 31 0 11 29 4 40 -10z m-1330 -21 c0 -2 -9 -4 -21
-4 -11 0 -18 4 -14 10 5 8 35 3 35 -6z m-843 -60 c-3 -3 -12 -4 -19 -1 -8 3
-5 6 6 6 11 1 17 -2 13 -5z m2279 -21 c-7 -7 -26 7 -26 19 0 6 6 6 15 -2 9 -7
13 -15 11 -17z m-71 -13 c3 -5 1 -10 -4 -10 -6 0 -11 5 -11 10 0 6 2 10 4 10
3 0 8 -4 11 -10z m-1965 -11 c0 -7 -11 -9 -30 -5 -18 3 -30 1 -30 -5 0 -6 -4
-7 -10 -4 -5 3 -10 -1 -10 -9 0 -9 -9 -16 -20 -16 -31 0 -24 19 13 35 39 17
87 19 87 4z m-243 -5 c-3 -3 -12 -4 -19 -1 -8 3 -5 6 6 6 11 1 17 -2 13 -5z
m2130 0 c-3 -4 0 -19 8 -35 17 -31 20 -59 6 -43 -22 25 -32 84 -13 84 3 0 3
-3 -1 -6z m-887 -16 c0 -7 -5 -20 -10 -28 -8 -12 -10 -9 -10 13 0 15 5 27 10
27 6 0 10 -6 10 -12z m-1240 -48 c0 -5 -13 -10 -30 -10 -16 0 -30 5 -30 10 0
6 14 10 30 10 17 0 30 -4 30 -10z m3720 -50 c0 -5 -4 -10 -10 -10 -5 0 -10 5
-10 10 0 6 5 10 10 10 6 0 10 -4 10 -10z m-1545 -90 c-6 -10 60 -80 75 -80 4
0 6 -16 6 -35 -1 -19 -6 -35 -12 -35 -15 0 -53 72 -46 89 3 8 -1 12 -9 9 -16
-5 -42 59 -33 82 4 13 7 12 15 -3 6 -9 7 -22 4 -27z m-868 -332 c-2 -13 -4 -3
-4 22 0 25 2 35 4 23 2 -13 2 -33 0 -45z m-961 -40 c-10 -6 -20 -7 -24 -3 -9
8 20 25 31 18 5 -3 2 -10 -7 -15z m2155 -142 c-7 -8 -10 -24 -6 -35 3 -11 3
-36 -1 -56 l-6 -36 -19 31 c-19 30 -19 32 -2 63 25 45 35 58 41 52 3 -2 -1
-11 -7 -19z m1584 14 c3 -5 1 -10 -4 -10 -6 0 -11 5 -11 10 0 6 2 10 4 10 3 0
8 -4 11 -10z m-3265 -150 c-6 -11 -18 -20 -26 -20 -12 0 -10 5 7 20 30 25 32
25 19 0z m1790 -70 c0 -5 -4 -10 -10 -10 -5 0 -10 5 -10 10 0 6 5 10 10 10 6
0 10 -4 10 -10z m917 -36 c-3 -3 -12 -4 -19 -1 -8 3 -5 6 6 6 11 1 17 -2 13
-5z m-2782 -61 c-33 -23 -60 -12 -34 14 6 6 20 8 31 5 20 -5 20 -6 3 -19z
m175 3 c0 -1 -20 -4 -45 -4 -49 -2 -63 14 -17 20 23 3 62 -7 62 -16z m357 2
c-3 -8 -6 -5 -6 6 -1 11 2 17 5 13 3 -3 4 -12 1 -19z m1977 7 c4 -11 -1 -15
-19 -15 -16 0 -25 6 -25 15 0 8 9 15 19 15 10 0 21 -7 25 -15z m301 -15 c0
-19 -41 -16 -62 6 -14 14 -12 15 23 12 27 -2 39 -8 39 -18z m-3155 0 c0 -15
-46 -23 -77 -14 -27 8 -27 8 12 14 61 11 65 11 65 0z m67 -16 c-3 -3 -12 -4
-19 -1 -8 3 -5 6 6 6 11 1 17 -2 13 -5z m296 0 c10 -11 -12 -44 -30 -44 -14 0
-14 3 3 22 10 12 13 18 5 13 -10 -5 -12 -4 -7 3 8 13 19 15 29 6z m2564 -10
c-3 -3 -12 -4 -19 -1 -8 3 -5 6 6 6 11 1 17 -2 13 -5z m-2827 -14 c0 -5 -7
-10 -15 -10 -8 0 -15 5 -15 10 0 6 7 10 15 10 8 0 15 -4 15 -10z m663 3 c-7
-2 -19 -2 -25 0 -7 3 -2 5 12 5 14 0 19 -2 13 -5z m2242 -3 c-3 -5 -14 -10
-23 -9 -14 0 -13 2 3 9 27 11 27 11 20 0z m98 3 c-7 -2 -19 -2 -25 0 -7 3 -2
5 12 5 14 0 19 -2 13 -5z m47 -8 c0 -8 -2 -15 -4 -15 -2 0 -6 7 -10 15 -3 8
-1 15 4 15 6 0 10 -7 10 -15z m40 1 c0 -11 -19 -15 -25 -6 -3 5 1 10 9 10 9 0
16 -2 16 -4z m-2920 -40 c0 -2 -7 -9 -15 -16 -12 -10 -15 -10 -15 4 0 9 7 16
15 16 8 0 15 -2 15 -4z m3330 -6 c0 -5 -15 -10 -32 -9 -31 1 -32 1 -8 9 35 11
40 11 40 0z m-3280 -20 c9 -17 8 -20 -13 -20 -31 0 -39 9 -24 26 17 18 25 17
37 -6z m546 -6 c-4 -9 -9 -15 -11 -12 -3 3 -3 13 1 22 4 9 9 15 11 12 3 -3 3
-13 -1 -22z m2374 14 c0 -4 -4 -8 -10 -8 -5 0 -7 -7 -4 -15 7 -17 -21 -21 -31
-5 -4 6 -11 8 -16 5 -5 -4 -9 -1 -9 4 0 6 7 11 15 11 8 0 15 4 15 9 0 6 9 9
20 8 11 -1 20 -5 20 -9z m-1083 -30 c-3 -7 -5 -2 -5 12 0 14 2 19 5 13 2 -7 2
-19 0 -25z m-1427 3 c0 -12 -20 -25 -27 -18 -7 7 6 27 18 27 5 0 9 -4 9 -9z
m-275 -12 c4 -5 -8 -9 -25 -9 -17 0 -29 4 -26 8 7 11 45 12 51 1z m95 7 c0 -3
-4 -8 -10 -11 -5 -3 -10 -1 -10 4 0 6 5 11 10 11 6 0 10 -2 10 -4z m2290 -26
c0 -5 -3 -10 -7 -11 -5 0 -20 -2 -35 -4 -27 -3 -36 4 -21 18 10 11 63 8 63 -3z
m-140 -14 c0 -3 -4 -8 -10 -11 -5 -3 -10 -1 -10 4 0 6 5 11 10 11 6 0 10 -2
10 -4z m20 -16 c0 -5 -5 -10 -11 -10 -5 0 -7 5 -4 10 3 6 8 10 11 10 2 0 4 -4
4 -10z m890 -4 c0 -2 -8 -10 -17 -17 -16 -13 -17 -12 -4 4 13 16 21 21 21 13z
m-2960 -31 c0 -2 -3 -10 -6 -19 -7 -17 -34 -22 -34 -6 0 6 -12 9 -27 8 -53 -3
-84 2 -77 13 3 6 17 8 29 5 13 -3 26 -3 29 2 4 7 86 4 86 -3z m3030 5 c0 -5
-2 -10 -4 -10 -3 0 -8 5 -11 10 -3 6 -1 10 4 10 6 0 11 -4 11 -10z m-38 -54
c-6 -48 -12 -46 -12 5 0 22 4 38 8 35 4 -3 6 -21 4 -40z m-51 2 c11 -21 11
-22 -4 -9 -10 7 -17 17 -17 22 0 15 9 10 21 -13z m-2826 -8 c8 -13 -286 -18
-600 -9 -145 4 -152 3 477 16 69 2 119 -1 123 -7z m-855 -10 c0 -5 -4 -10 -10
-10 -5 0 -10 5 -10 10 0 6 5 10 10 10 6 0 10 -4 10 -10z m3767 -12 c-3 -8 -6
-5 -6 6 -1 11 2 17 5 13 3 -3 4 -12 1 -19z m-103 -4 c9 -24 2 -26 -12 -4 -7
11 -8 20 -3 20 5 0 12 -7 15 -16z m-1085 -42 c10 -2 11 -5 2 -15 -6 -8 -8 -17
-4 -20 6 -7 -34 -12 -72 -9 -11 1 -46 2 -77 2 -32 1 -70 8 -85 15 -16 8 -34
15 -41 15 -7 0 -11 3 -9 8 4 6 244 9 286 4z m952 -22 c6 -25 -5 -60 -19 -60
-9 0 -32 58 -32 79 0 24 44 7 51 -19z m-2661 -13 c0 -11 -33 -4 -42 8 -4 5 0
13 10 16 16 6 31 -6 32 -24z m-193 11 c-21 -7 -32 -7 -40 1 -8 8 0 11 29 10
39 -1 39 -1 11 -11z m1088 2 c3 -5 -1 -10 -9 -10 -9 0 -16 5 -16 10 0 6 4 10
9 10 6 0 13 -4 16 -10z m-1738 -6 c-3 -3 -12 -4 -19 -1 -8 3 -5 6 6 6 11 1 17
-2 13 -5z m2273 -16 c11 6 28 12 37 12 15 0 16 -2 3 -10 -12 -7 -11 -10 5 -15
11 -4 27 -10 36 -15 9 -5 34 -4 57 1 26 6 51 5 68 -1 15 -6 35 -8 46 -4 17 5
19 3 13 -15 -6 -20 -3 -21 52 -19 35 1 45 3 26 5 -18 2 -33 9 -33 14 0 6 9 7
20 4 11 -4 32 -8 48 -9 15 -2 28 -10 30 -19 3 -14 -5 -16 -60 -11 -45 3 -59 2
-48 -5 12 -9 10 -11 -10 -12 -14 -1 -32 -2 -40 -1 -8 0 -22 -4 -33 -9 -11 -6
-50 -7 -100 -3 -45 4 -74 10 -64 12 9 2 17 8 17 14 0 6 -3 9 -6 5 -3 -3 -18
-1 -34 5 -20 6 -35 6 -49 -2 -20 -10 -21 -8 -21 42 0 38 3 49 10 38 8 -12 13
-13 30 -2z m-534 -85 c-2 -3 -14 -2 -25 2 -29 9 -28 49 2 62 20 9 22 7 25 -24
2 -19 1 -37 -2 -40z m-903 40 c-7 -2 -19 -2 -25 0 -7 3 -2 5 12 5 14 0 19 -2
13 -5z m2889 -55 c-20 -23 -29 -23 -42 2 -9 16 -6 22 17 34 25 13 29 13 34 -2
4 -10 0 -25 -9 -34z m-992 26 c0 -2 -7 -4 -15 -4 -8 0 -15 4 -15 10 0 5 7 7
15 4 8 -4 15 -8 15 -10z m900 -8 c0 -2 -7 -6 -15 -10 -8 -3 -15 -1 -15 4 0 6
7 10 15 10 8 0 15 -2 15 -4z m-153 -32 c-9 -9 -28 6 -21 18 4 6 10 6 17 -1 6
-6 8 -13 4 -17z m-3807 -4 c-8 -5 -19 -10 -25 -10 -5 0 -3 5 5 10 8 5 20 10
25 10 6 0 3 -5 -5 -10z m3230 6 c0 -2 -7 -6 -15 -10 -8 -3 -15 -1 -15 4 0 6 7
10 15 10 8 0 15 -2 15 -4z m-1963 -43 c-3 -10 -5 -4 -5 12 0 17 2 24 5 18 2
-7 2 -21 0 -30z m1643 27 c0 -5 -4 -10 -10 -10 -5 0 -10 5 -10 10 0 6 5 10 10
10 6 0 10 -4 10 -10z m60 0 c0 -5 -2 -10 -4 -10 -3 0 -8 5 -11 10 -3 6 -1 10
4 10 6 0 11 -4 11 -10z m180 -10 c-8 -5 -17 -7 -19 -4 -3 3 1 9 9 14 8 5 17 7
19 4 3 -3 -1 -9 -9 -14z m-100 6 c0 -8 -61 -12 -66 -4 -3 4 11 8 30 8 20 0 36
-2 36 -4z m259 -19 c-28 -9 -35 -17 -34 -35 3 -34 -20 -20 -23 14 -3 30 -2 30
45 31 l48 2 -36 -12z m218 -10 c-1 -10 -7 -15 -14 -13 -6 3 -14 0 -17 -7 -2
-7 -5 -4 -5 6 -1 9 -8 17 -16 17 -14 0 -19 -11 -16 -35 1 -5 -6 -1 -14 9 -13
18 -20 15 -16 -6 1 -9 -71 -11 -93 -2 -26 10 -18 23 17 26 20 2 37 -3 44 -12
10 -13 12 -11 13 13 0 27 1 27 59 25 50 -3 59 -6 58 -21z m543 -18 c0 -5 -7
-9 -16 -9 -9 0 -31 -9 -48 -19 -17 -11 -45 -22 -61 -25 l-30 -5 24 18 c23 18
23 19 5 24 -14 3 -13 5 7 6 15 0 42 7 60 15 33 14 59 12 59 -5z m-1230 -8 c10
-13 51 -10 44 2 -5 8 -3 8 7 0 7 -7 21 -13 30 -13 10 0 21 -5 24 -10 10 -16
-164 -11 -195 5 -26 13 -71 9 -147 -14 -30 -9 -33 -8 -33 12 0 21 5 22 87 25
48 2 89 5 91 7 5 5 87 -7 92 -14z m214 10 c4 -5 -3 -7 -14 -4 -23 6 -26 13 -6
13 8 0 17 -4 20 -9z m-1787 -38 c-3 -10 -5 -4 -5 12 0 17 2 24 5 18 2 -7 2
-21 0 -30z m-77 11 c0 -2 -9 -4 -21 -4 -11 0 -18 4 -14 10 5 8 35 3 35 -6z
m2327 -20 c-3 -4 -14 -3 -24 0 -15 6 -15 8 -3 16 16 10 39 -4 27 -16z m-1088
-11 c-10 -17 -16 -18 -35 -9 -33 15 -30 24 9 28 41 4 41 4 26 -19z m-79 1 c0
-2 -9 -4 -21 -4 -11 0 -18 4 -14 10 5 8 35 3 35 -6z m-264 -72 c-13 -12 -17 8
-9 44 l8 39 3 -39 c2 -21 1 -41 -2 -44z m2028 54 c-3 -9 -10 -16 -15 -16 -5 0
-4 9 3 20 14 22 21 20 12 -4z m-2058 -24 c-10 -11 -16 -12 -16 -4 0 7 5 12 10
12 6 0 10 8 11 18 0 11 2 13 6 4 3 -8 -2 -21 -11 -30z m526 13 c3 -14 1 -25
-3 -25 -5 0 -9 11 -9 25 0 14 2 25 4 25 2 0 6 -11 8 -25z m352 -5 c-22 -9 -29
-6 -20 9 4 6 14 7 23 4 15 -6 14 -7 -3 -13z m523 -12 c-3 -8 -6 -5 -6 6 -1 11
2 17 5 13 3 -3 4 -12 1 -19z m-439 -5 c-10 -2 -26 -2 -35 0 -10 3 -2 5 17 5
19 0 27 -2 18 -5z m469 -15 c-3 -8 -6 -5 -6 6 -1 11 2 17 5 13 3 -3 4 -12 1
-19z m591 14 c8 -6 2 -9 -18 -9 -20 0 -26 3 -18 9 7 4 15 8 18 8 3 0 11 -4 18
-8z m-3058 -6 c0 -11 -19 -15 -25 -6 -3 5 1 10 9 10 9 0 16 -2 16 -4z m1830
-6 c0 -5 -5 -10 -11 -10 -5 0 -7 5 -4 10 3 6 8 10 11 10 2 0 4 -4 4 -10z m109
6 c-8 -8 -78 -10 -85 -3 -4 4 14 7 41 7 27 0 46 -2 44 -4z m-1819 -16 c0 -5
-15 -9 -32 -9 l-33 1 30 8 c17 4 31 8 33 9 1 0 2 -3 2 -9z m2323 3 c-7 -2 -21
-2 -30 0 -10 3 -4 5 12 5 17 0 24 -2 18 -5z m-656 -9 c-3 -3 -12 -4 -19 -1 -8
3 -5 6 6 6 11 1 17 -2 13 -5z m-1510 -26 c-3 -8 -6 -5 -6 6 -1 11 2 17 5 13 3
-3 4 -12 1 -19z"/>
<path d="M1735 3580 c-3 -5 -1 -10 4 -10 6 0 11 5 11 10 0 6 -2 10 -4 10 -3 0
-8 -4 -11 -10z"/>
<path d="M4035 2540 c3 -5 10 -10 16 -10 5 0 9 5 9 10 0 6 -7 10 -16 10 -8 0
-12 -4 -9 -10z"/>
<path d="M810 1830 c-11 -7 -3 -10 30 -9 34 0 40 2 25 9 -27 12 -37 12 -55 0z"/>
<path d="M1095 1830 c-4 -6 7 -10 25 -10 18 0 29 4 25 10 -3 6 -15 10 -25 10
-10 0 -22 -4 -25 -10z"/>
<path d="M965 1740 c-3 -6 -10 -8 -15 -5 -5 3 -11 1 -15 -5 -4 -6 4 -10 19
-10 14 0 29 -7 34 -16 8 -14 10 -14 21 0 8 9 20 16 28 16 8 0 13 6 11 13 -6
15 -74 22 -83 7z"/>
<path d="M1073 1737 c-9 -15 5 -19 47 -12 23 4 38 10 35 13 -10 10 -76 9 -82
-1z"/>
<path d="M1343 1743 c9 -2 25 -2 35 0 9 3 1 5 -18 5 -19 0 -27 -2 -17 -5z"/>
<path d="M1248 1733 c6 -2 18 -2 25 0 6 3 1 5 -13 5 -14 0 -19 -2 -12 -5z"/>
<path d="M792 1719 c22 -5 47 -5 60 1 18 7 9 9 -37 8 -56 0 -58 -1 -23 -9z"/>
<path d="M888 1723 c7 -3 16 -2 19 1 4 3 -2 6 -13 5 -11 0 -14 -3 -6 -6z"/>
<path d="M728 1683 c7 -3 16 -2 19 1 4 3 -2 6 -13 5 -11 0 -14 -3 -6 -6z"/>
<path d="M413 1633 c9 -2 23 -2 30 0 6 3 -1 5 -18 5 -16 0 -22 -2 -12 -5z"/>
<path d="M1017 1264 c-14 -14 -6 -24 19 -24 16 0 24 5 22 13 -5 14 -31 21 -41
11z"/>
<path d="M3300 409 c0 -5 5 -7 10 -4 6 3 10 8 10 11 0 2 -4 4 -10 4 -5 0 -10
-5 -10 -11z"/>
<path d="M3040 359 c0 -5 5 -7 10 -4 6 3 10 8 10 11 0 2 -4 4 -10 4 -5 0 -10
-5 -10 -11z"/>
<path d="M3175 300 c-16 -7 -13 -9 15 -9 19 0 44 4 55 9 16 7 13 9 -15 9 -19
0 -44 -4 -55 -9z"/>
<path d="M2510 350 c0 -5 5 -10 11 -10 5 0 7 5 4 10 -3 6 -8 10 -11 10 -2 0
-4 -4 -4 -10z"/>
<path d="M3760 4590 c0 -5 5 -10 10 -10 6 0 10 5 10 10 0 6 -4 10 -10 10 -5 0
-10 -4 -10 -10z"/>
<path d="M3790 4586 c0 -27 18 -63 36 -70 24 -9 54 21 54 54 0 25 -3 27 -45
28 -33 2 -45 -2 -45 -12z"/>
<path d="M3898 4593 c7 -3 16 -2 19 1 4 3 -2 6 -13 5 -11 0 -14 -3 -6 -6z"/>
<path d="M2264 4373 c14 -25 23 -49 21 -52 -2 -4 9 -14 25 -23 25 -14 29 -14
34 -1 3 8 10 11 16 8 5 -3 18 -1 27 5 16 10 16 10 -2 6 -14 -4 -23 1 -32 19
-10 22 -9 25 8 25 10 0 19 4 19 9 0 12 -36 21 -82 21 -27 0 -38 4 -38 15 0 8
-5 15 -10 15 -6 0 1 -21 14 -47z"/>
<path d="M1605 4390 c-3 -5 1 -10 9 -10 8 0 18 5 21 10 3 6 -1 10 -9 10 -8 0
-18 -4 -21 -10z"/>
<path d="M1688 4393 c7 -3 16 -2 19 1 4 3 -2 6 -13 5 -11 0 -14 -3 -6 -6z"/>
<path d="M2240 4293 c0 -9 29 -33 39 -33 17 0 1 28 -20 33 -10 3 -19 3 -19 0z"/>
<path d="M2372 3592 c-19 -13 -4 -41 19 -35 21 6 21 6 13 27 -7 18 -13 19 -32
8z"/>
<path d="M2345 3300 c3 -5 8 -10 11 -10 2 0 4 5 4 10 0 6 -5 10 -11 10 -5 0
-7 -4 -4 -10z"/>
<path d="M2463 3161 c-13 -21 -8 -31 18 -31 16 0 39 27 39 44 0 15 -46 4 -57
-13z"/>
<path d="M1953 2885 c-9 -24 1 -27 15 -5 8 13 8 20 2 20 -6 0 -13 -7 -17 -15z"/>
<path d="M2030 2719 c0 -5 5 -7 10 -4 6 3 10 8 10 11 0 2 -4 4 -10 4 -5 0 -10
-5 -10 -11z"/>
<path d="M2228 2623 c7 -3 16 -2 19 1 4 3 -2 6 -13 5 -11 0 -14 -3 -6 -6z"/>
<path d="M1704 2574 c-18 -14 -18 -15 4 -4 12 6 22 13 22 15 0 8 -5 6 -26 -11z"/>
<path d="M2149 2539 c19 -12 40 -17 50 -13 13 5 10 9 -14 20 -16 7 -39 13 -50
14 -15 0 -12 -5 14 -21z"/>
<path d="M1731 2294 c0 -11 3 -14 6 -6 3 7 2 16 -1 19 -3 4 -6 -2 -5 -13z"/>
<path d="M1750 2025 c0 -8 2 -15 4 -15 2 0 6 7 10 15 3 8 1 15 -4 15 -6 0 -10
-7 -10 -15z"/>
<path d="M2295 1990 c3 -5 8 -10 11 -10 2 0 4 5 4 10 0 6 -5 10 -11 10 -5 0
-7 -4 -4 -10z"/>
<path d="M2340 1957 l-45 -32 60 -5 60 -5 -1 -240 c0 -132 -6 -401 -13 -599
-7 -197 -10 -360 -8 -362 2 -3 9 109 16 248 6 139 16 352 23 473 6 121 10 249
9 285 -2 97 8 160 24 153 11 -4 12 1 3 29 -6 18 -13 39 -14 46 -2 7 -8 11 -13
7 -6 -3 -15 4 -21 15 -14 27 -27 25 -80 -13z"/>
<path d="M2033 1903 c-18 -7 -16 -23 2 -23 8 0 15 7 15 15 0 8 -1 15 -2 14 -2
0 -9 -3 -15 -6z"/>
<path d="M3917 1868 c-8 -29 -4 -32 11 -8 6 10 8 21 3 24 -5 3 -11 -4 -14 -16z"/>
<path d="M2470 1787 c0 -48 4 -66 15 -70 8 -4 17 -2 20 3 4 6 1 10 -4 10 -7 0
-11 23 -11 54 0 30 -4 58 -10 61 -6 4 -10 -18 -10 -58z"/>
<path d="M3908 1822 c-10 -2 -18 -7 -18 -12 0 -13 41 -23 51 -13 13 13 -11 31
-33 25z"/>
<path d="M2115 1810 c-3 -5 -1 -10 4 -10 6 0 11 5 11 10 0 6 -2 10 -4 10 -3 0
-8 -4 -11 -10z"/>
<path d="M1911 1744 c0 -11 3 -14 6 -6 3 7 2 16 -1 19 -3 4 -6 -2 -5 -13z"/>
<path d="M3938 1741 c-10 -10 -18 -21 -18 -24 0 -9 34 5 42 17 20 29 2 34 -24
7z"/>
<path d="M4358 1723 c6 -2 10 -9 6 -14 -3 -5 1 -9 8 -9 7 0 23 -3 36 -6 15 -5
22 -2 22 9 0 8 -13 17 -31 21 -37 7 -60 7 -41 -1z"/>
<path d="M4440 1720 c0 -5 7 -10 16 -10 8 0 12 5 9 10 -3 6 -10 10 -16 10 -5
0 -9 -4 -9 -10z"/>
<path d="M3872 1680 c-27 -26 -78 -133 -85 -180 -3 -19 -13 -62 -21 -94 -21
-75 -15 -83 10 -14 19 52 20 53 59 53 40 0 40 0 65 -64 14 -36 26 -57 28 -48
2 10 -6 37 -18 62 -12 24 -22 53 -23 64 -1 16 -8 21 -29 21 -15 0 -28 5 -28
11 0 5 -4 7 -10 4 -17 -11 -11 4 12 27 l21 21 18 -22 c12 -14 20 -18 25 -10 4
8 9 7 15 -2 7 -11 9 -11 9 1 0 8 -5 22 -10 30 -6 10 -10 11 -10 3 0 -24 -15
-13 -38 28 -30 53 -17 72 29 45 31 -18 31 -18 20 3 -7 11 -17 21 -23 21 -7 0
-6 5 2 15 7 8 21 15 31 15 10 0 21 5 24 10 3 6 0 10 -9 10 -8 0 -21 2 -28 5
-8 3 -24 -4 -36 -15z"/>
<path d="M4087 1633 c-14 -13 -6 -33 12 -33 25 0 38 20 20 31 -17 11 -24 11
-32 2z"/>
<path d="M3959 1615 c-12 -12 4 -53 22 -58 20 -5 26 7 8 18 -6 4 -14 16 -18
26 -4 11 -9 17 -12 14z"/>
<path d="M3355 1590 c-34 -3 -46 -8 -36 -14 11 -7 11 -10 0 -17 -11 -7 -10 -9
4 -9 9 0 17 5 17 11 0 6 7 9 15 6 8 -4 17 -2 20 2 3 5 14 7 25 4 26 -7 130 6
130 16 0 8 -98 9 -175 1z"/>
<path d="M4190 1590 c0 -5 5 -10 11 -10 5 0 7 5 4 10 -3 6 -8 10 -11 10 -2 0
-4 -4 -4 -10z"/>
<path d="M3890 1570 c0 -5 5 -10 11 -10 5 0 7 5 4 10 -3 6 -8 10 -11 10 -2 0
-4 -4 -4 -10z"/>
<path d="M3942 1520 c0 -14 2 -19 5 -12 2 6 2 18 0 25 -3 6 -5 1 -5 -13z"/>
<path d="M110 1520 c-13 -8 -13 -10 2 -10 9 0 20 5 23 10 8 13 -5 13 -25 0z"/>
<path d="M4271 1414 c0 -11 3 -14 6 -6 3 7 2 16 -1 19 -3 4 -6 -2 -5 -13z"/>
<path d="M3850 1410 c0 -5 5 -10 10 -10 6 0 10 5 10 10 0 6 -4 10 -10 10 -5 0
-10 -4 -10 -10z"/>
<path d="M3777 1345 c-4 -8 -2 -17 3 -20 6 -4 10 3 10 14 0 25 -6 27 -13 6z"/>
<path d="M4450 1330 c0 -5 5 -10 11 -10 5 0 7 5 4 10 -3 6 -8 10 -11 10 -2 0
-4 -4 -4 -10z"/>
<path d="M3898 1238 c19 -50 20 -53 27 -46 7 7 -27 88 -37 88 -3 0 1 -19 10
-42z"/>
<path d="M4453 1233 c-12 -2 -25 -13 -28 -24 -4 -12 -15 -19 -31 -19 -37 0
-28 -18 14 -26 58 -12 112 -9 112 6 0 11 -22 9 -30 -2 -3 -3 -16 0 -30 8 -23
14 -23 15 -3 11 13 -3 24 1 27 10 8 21 7 43 -1 42 -5 -1 -18 -4 -30 -6z"/>
<path d="M3000 1219 c0 -5 5 -7 10 -4 6 3 10 8 10 11 0 2 -4 4 -10 4 -5 0 -10
-5 -10 -11z"/>
<path d="M4020 1202 c14 -11 27 -16 29 -11 4 13 2 15 -29 24 l-25 8 25 -21z"/>
<path d="M3036 1155 c-3 -8 -1 -15 3 -15 5 0 11 7 15 15 3 8 1 15 -3 15 -5 0
-11 -7 -15 -15z"/>
<path d="M2311 1145 c-2 -11 -5 -15 -7 -8 -7 16 -34 5 -34 -14 0 -8 5 -11 10
-8 6 3 10 0 10 -7 0 -9 3 -9 10 2 7 11 10 -7 11 -60 1 -41 4 -64 6 -51 4 19 7
21 14 10 6 -10 9 -5 9 16 0 23 -3 27 -10 15 -8 -12 -10 -9 -10 13 0 15 5 27
10 27 6 0 10 10 10 23 0 17 -2 19 -9 8 -7 -11 -11 -6 -14 20 -2 19 -5 25 -6
14z"/>
<path d="M3990 1141 c0 -5 8 -11 18 -14 9 -2 26 -8 37 -12 11 -4 7 2 -10 14
-32 23 -45 26 -45 12z"/>
<path d="M1862 1095 c0 -16 2 -22 5 -12 2 9 2 23 0 30 -3 6 -5 -1 -5 -18z"/>
<path d="M1926 1104 c-9 -22 -8 -24 9 -18 8 4 15 12 15 20 0 19 -16 18 -24 -2z"/>
<path d="M1882 1090 c0 -14 2 -19 5 -12 2 6 2 18 0 25 -3 6 -5 1 -5 -13z"/>
<path d="M3360 1100 c0 -5 7 -7 15 -4 8 4 15 8 15 10 0 2 -7 4 -15 4 -8 0 -15
-4 -15 -10z"/>
<path d="M3772 1098 c-20 -20 -14 -30 15 -26 32 4 46 38 16 38 -11 0 -24 -5
-31 -12z"/>
<path d="M2250 1065 c-1 -16 -2 -33 -1 -37 1 -8 -15 -12 -31 -9 -5 0 -8 -3 -8
-9 0 -5 4 -10 9 -10 11 0 9 -53 -3 -61 -5 -4 1 -12 13 -18 18 -10 22 -9 28 5
5 13 10 8 19 -22 l12 -39 -4 45 c-3 33 -2 40 5 25 9 -19 10 -19 10 2 1 12 -5
24 -11 26 -10 4 -10 6 0 6 7 1 12 13 11 29 l-1 27 -8 -25 c-6 -20 -8 -16 -9
23 -1 27 -5 46 -10 42 -5 -3 -12 3 -14 12 -3 11 -6 6 -7 -12z m17 -97 c-3 -8
-6 -5 -6 6 -1 11 2 17 5 13 3 -3 4 -12 1 -19z"/>
<path d="M1920 1048 c0 -4 7 -8 15 -8 8 0 15 4 15 8 0 5 -7 9 -15 9 -8 0 -15
-4 -15 -9z"/>
<path d="M3750 1040 c0 -5 11 -10 25 -10 14 0 25 5 25 10 0 6 -11 10 -25 10
-14 0 -25 -4 -25 -10z"/>
<path d="M3340 1020 c0 -5 5 -10 10 -10 6 0 10 5 10 10 0 6 -4 10 -10 10 -5 0
-10 -4 -10 -10z"/>
<path d="M3435 1020 c3 -5 10 -10 16 -10 5 0 9 5 9 10 0 6 -7 10 -16 10 -8 0
-12 -4 -9 -10z"/>
<path d="M2182 910 c0 -19 2 -27 5 -17 2 9 2 25 0 35 -3 9 -5 1 -5 -18z"/>
<path d="M3178 913 c5 -25 27 -31 35 -10 7 18 -4 34 -24 34 -11 0 -14 -7 -11
-24z"/>
<path d="M2161 918 c0 -10 -5 -18 -11 -18 -5 0 -9 -15 -9 -32 1 -22 3 -26 6
-13 3 11 10 23 15 26 5 4 8 17 5 30 -2 14 -5 17 -6 7z"/>
<path d="M3313 903 c-29 -20 -29 -27 1 -41 18 -8 28 -7 43 3 17 13 16 14 -12
15 l-30 2 28 12 c15 7 24 15 21 19 -11 11 -27 8 -51 -10z"/>
<path d="M3960 900 c0 -5 5 -10 11 -10 5 0 7 5 4 10 -3 6 -8 10 -11 10 -2 0
-4 -4 -4 -10z"/>
<path d="M2115 880 c3 -5 8 -10 11 -10 2 0 4 5 4 10 0 6 -5 10 -11 10 -5 0 -7
-4 -4 -10z"/>
<path d="M3443 876 c4 -9 1 -26 -6 -37 -10 -16 -9 -21 3 -29 18 -11 72 -2 86
16 6 8 16 14 23 14 6 0 11 4 11 8 0 7 -25 16 -109 40 -9 3 -12 -1 -8 -12z m57
-36 c8 -5 11 -10 5 -10 -5 0 -17 5 -25 10 -8 5 -10 10 -5 10 6 0 17 -5 25 -10z"/>
<path d="M1823 835 c0 -22 2 -30 4 -17 2 12 2 30 0 40 -3 9 -5 -1 -4 -23z"/>
<path d="M1932 840 c0 -14 2 -19 5 -12 2 6 2 18 0 25 -3 6 -5 1 -5 -13z"/>
<path d="M1971 834 c0 -11 3 -14 6 -6 3 7 2 16 -1 19 -3 4 -6 -2 -5 -13z"/>
<path d="M1992 825 c0 -16 2 -22 5 -12 2 9 2 23 0 30 -3 6 -5 -1 -5 -18z"/>
<path d="M2011 832 c-1 -20 2 -21 19 -12 14 8 20 8 20 0 0 -6 4 -8 10 -5 5 3
20 0 32 -6 20 -11 21 -10 11 3 -7 8 -9 18 -5 23 4 4 -3 5 -15 2 -13 -3 -23 -1
-23 4 0 6 -8 6 -19 -1 -14 -7 -21 -6 -24 3 -3 6 -6 2 -6 -11z"/>
<path d="M3158 843 c7 -3 16 -2 19 1 4 3 -2 6 -13 5 -11 0 -14 -3 -6 -6z"/>
<path d="M1862 815 c0 -16 2 -22 5 -12 2 9 2 23 0 30 -3 6 -5 -1 -5 -18z"/>
<path d="M3270 832 c-46 -2 -67 -8 -76 -20 -16 -22 -11 -26 14 -11 16 10 34
10 90 0 63 -11 73 -11 96 4 34 22 24 35 -23 32 -21 -1 -67 -3 -101 -5z"/>
<path d="M3817 814 c9 -15 19 -21 21 -15 4 13 -16 41 -29 41 -5 0 -2 -12 8
-26z"/>
<path d="M2161 801 c1 -17 3 -20 6 -8 6 24 19 21 27 -5 5 -18 8 -20 15 -9 7
11 9 11 14 0 3 -8 6 -1 6 15 1 24 -2 27 -19 23 -11 -3 -20 -2 -20 2 0 4 -7 8
-15 8 -10 0 -15 -9 -14 -26z"/>
<path d="M2242 800 c0 -19 2 -27 5 -17 2 9 2 25 0 35 -3 9 -5 1 -5 -18z"/>
<path d="M1922 780 c0 -14 2 -19 5 -12 2 6 2 18 0 25 -3 6 -5 1 -5 -13z"/>
<path d="M1950 790 c0 -5 7 -10 15 -10 8 0 15 5 15 10 0 6 -7 10 -15 10 -8 0
-15 -4 -15 -10z"/>
<path d="M3316 761 c-10 -16 38 -21 54 -6 13 13 10 15 -17 15 -18 0 -34 -4
-37 -9z"/>
<path d="M3627 733 c-14 -13 -6 -30 18 -41 33 -15 35 -15 35 2 0 9 -7 12 -20
9 -25 -7 -26 12 -2 26 15 9 15 10 -4 11 -11 0 -24 -3 -27 -7z"/>
<path d="M3690 711 c0 -10 40 -22 52 -15 18 11 6 24 -22 24 -16 0 -30 -4 -30
-9z"/>
<path d="M3175 700 c3 -5 13 -10 21 -10 8 0 14 5 14 10 0 6 -9 10 -21 10 -11
0 -17 -4 -14 -10z"/>
<path d="M3110 650 c0 -5 7 -10 15 -10 8 0 15 5 15 10 0 6 -7 10 -15 10 -8 0
-15 -4 -15 -10z"/>
<path d="M3040 640 c0 -5 5 -10 11 -10 5 0 7 5 4 10 -3 6 -8 10 -11 10 -2 0
-4 -4 -4 -10z"/>
<path d="M3200 640 c0 -5 11 -10 25 -10 14 0 25 5 25 10 0 6 -11 10 -25 10
-14 0 -25 -4 -25 -10z"/>
<path d="M3275 640 c3 -5 11 -10 16 -10 6 0 7 5 4 10 -3 6 -11 10 -16 10 -6 0
-7 -4 -4 -10z"/>
<path d="M1781 553 c0 -31 2 -34 9 -18 12 28 12 55 0 55 -5 0 -10 -17 -9 -37z"/>
<path d="M1812 570 c0 -14 2 -19 5 -12 2 6 2 18 0 25 -3 6 -5 1 -5 -13z"/>
<path d="M3115 580 c-3 -5 -3 -14 0 -20 3 -5 1 -10 -6 -10 -7 0 -10 -3 -6 -6
9 -9 97 -13 97 -4 0 11 -40 25 -64 21 -14 -2 -17 2 -13 13 7 18 2 22 -8 6z"/>
<path d="M3068 553 c7 -3 16 -2 19 1 4 3 -2 6 -13 5 -11 0 -14 -3 -6 -6z"/>
<path d="M2424 425 c0 -72 1 -99 3 -62 2 37 2 96 0 130 -2 34 -3 4 -3 -68z"/>
<path d="M2010 441 c0 -5 7 -11 15 -15 9 -3 15 0 15 9 0 8 -7 15 -15 15 -8 0
-15 -4 -15 -9z"/>
<path d="M2850 415 c0 -8 5 -15 10 -15 6 0 8 -12 4 -27 -4 -22 -3 -25 5 -13
16 22 13 57 -4 64 -9 3 -15 0 -15 -9z"/>
<path d="M2290 409 c0 -5 -5 -7 -11 -3 -8 5 -10 -1 -5 -19 3 -14 2 -36 -3 -49
-9 -21 -10 -20 -12 12 -2 31 -2 32 -6 8 -4 -25 -13 -33 -35 -29 -5 0 -8 -4 -8
-10 0 -6 -7 -9 -15 -5 -12 4 -15 -3 -14 -37 1 -36 2 -38 9 -17 4 14 8 21 9 16
1 -6 8 -1 16 10 13 17 14 16 10 -21 -2 -22 -4 -55 -4 -73 -1 -19 -5 -31 -11
-27 -6 4 -8 -13 -5 -46 4 -51 -8 -94 -23 -85 -5 3 -9 -4 -9 -15 -2 -16 5 -19
48 -19 44 0 49 2 50 23 1 21 1 21 9 -3 7 -21 8 -18 7 16 -1 35 -4 40 -19 36
-14 -3 -18 1 -18 21 0 14 -6 28 -12 31 -7 4 -3 4 10 2 12 -2 22 -1 22 3 0 3
10 11 23 16 14 7 24 22 28 45 l6 35 5 -35 c3 -24 5 -14 6 32 1 37 -2 70 -8 73
-5 3 -10 23 -10 43 0 28 3 33 10 22 8 -12 10 -11 10 8 0 12 -4 22 -10 22 -5 0
-10 7 -10 15 0 8 -7 15 -15 15 -8 0 -15 -5 -15 -11z m-33 -391 c-3 -8 -6 -5
-6 6 -1 11 2 17 5 13 3 -3 4 -12 1 -19z"/>
<path d="M1115 370 c-3 -5 1 -10 10 -10 9 0 13 5 10 10 -3 6 -8 10 -10 10 -2
0 -7 -4 -10 -10z"/>
<path d="M2842 360 c0 -14 2 -19 5 -12 2 6 2 18 0 25 -3 6 -5 1 -5 -13z"/>
<path d="M888 335 c17 -14 33 -25 37 -25 5 0 -4 11 -19 25 -15 14 -32 25 -37
25 -6 0 3 -11 19 -25z"/>
<path d="M1430 330 c-13 -8 -12 -10 3 -10 9 0 17 5 17 10 0 12 -1 12 -20 0z"/>
<path d="M1971 324 c0 -11 3 -14 6 -6 3 7 2 16 -1 19 -3 4 -6 -2 -5 -13z"/>
<path d="M2162 310 c0 -19 2 -27 5 -17 2 9 2 25 0 35 -3 9 -5 1 -5 -18z"/>
<path d="M946 311 c-4 -7 -5 -15 -2 -18 9 -9 19 4 14 18 -4 11 -6 11 -12 0z"/>
<path d="M1020 290 c0 -11 2 -20 4 -20 2 0 6 9 9 20 3 11 1 20 -4 20 -5 0 -9
-9 -9 -20z"/>
<path d="M1793 255 c0 -22 2 -30 4 -17 2 12 2 30 0 40 -3 9 -5 -1 -4 -23z"/>
<path d="M685 253 c-34 -8 -123 -51 -130 -63 -13 -20 25 -22 51 -1 15 12 32
21 39 21 25 0 115 31 115 40 0 10 -39 12 -75 3z"/>
<path d="M772 249 c3 -8 13 -15 24 -16 32 -3 76 -14 93 -22 9 -5 22 -6 30 -3
8 3 11 0 7 -7 -5 -7 -1 -9 8 -5 10 4 16 1 16 -10 0 -9 6 -13 15 -10 8 4 12 10
9 15 -9 15 -92 51 -103 45 -5 -3 -11 -1 -13 5 -2 5 -23 13 -47 16 -35 5 -43 3
-39 -8z"/>
<path d="M1832 240 c0 -14 2 -19 5 -12 2 6 2 18 0 25 -3 6 -5 1 -5 -13z"/>
<path d="M2374 165 c0 -50 1 -71 3 -48 2 23 2 64 0 90 -2 26 -3 8 -3 -42z"/>
<path d="M2417 223 c-10 -9 -9 -223 1 -223 4 0 8 52 9 115 2 63 1 115 -1 115
-1 0 -6 -3 -9 -7z"/>
<path d="M1047 209 c-14 -8 -16 -14 -6 -25 10 -12 14 -12 25 3 24 32 15 42
-19 22z"/>
<path d="M2112 140 c0 -19 2 -27 5 -17 2 9 2 25 0 35 -3 9 -5 1 -5 -18z"/>
<path d="M1891 95 c-2 -26 -3 -28 -11 -10 -6 13 -9 15 -9 5 -1 -13 -2 -13 -12
0 -8 12 -9 8 -6 -15 2 -16 2 -24 0 -17 -3 6 -8 12 -13 12 -5 0 -11 8 -13 18
-3 9 -5 4 -6 -13 -1 -16 -4 -40 -7 -53 -6 -20 -3 -22 40 -22 30 0 46 4 46 13
0 8 4 7 10 -3 7 -11 10 -4 10 25 0 28 -3 36 -9 26 -7 -11 -11 -4 -14 25 -3 33
-4 34 -6 9z"/>
<path d="M432 70 c-18 -17 -27 -30 -22 -30 6 0 10 -8 10 -17 0 -12 -3 -14 -8
-6 -5 8 -12 8 -27 -3 -18 -13 -17 -14 15 -11 28 2 35 7 42 32 l7 30 94 3 c101
4 125 -6 114 -48 -4 -17 0 -20 23 -20 16 0 32 4 35 10 3 5 17 10 31 10 14 0
24 6 24 15 0 8 6 12 14 9 7 -3 16 2 19 10 4 11 20 16 48 16 41 0 41 -1 36 -30
-8 -37 0 -39 13 -4 7 19 7 31 -1 40 -16 19 -83 18 -99 -1 -7 -9 -22 -14 -34
-13 -13 2 -20 -2 -19 -9 2 -7 -3 -13 -11 -13 -8 0 -16 -4 -18 -9 -1 -4 -14
-12 -26 -16 -20 -6 -23 -4 -18 12 3 10 0 27 -7 37 -11 15 -30 18 -109 19 -53
1 -94 5 -91 10 9 15 -5 6 -35 -23z"/>
<path d="M2110 75 c0 -8 -6 -15 -12 -15 -7 0 -19 -12 -25 -27 -14 -29 -8 -47
7 -23 7 10 10 11 10 3 0 -7 6 -13 14 -13 9 0 14 14 14 45 1 25 -1 45 -3 45 -3
0 -5 -7 -5 -15z"/>
<path d="M3723 79 c-18 -6 -23 -16 -23 -44 l0 -35 81 0 c70 0 80 2 75 16 -3 9
-6 22 -6 29 0 30 -82 51 -127 34z"/>
<path d="M2020 59 c0 -11 -4 -17 -10 -14 -5 3 -10 -1 -10 -9 0 -9 -5 -15 -11
-13 -6 1 -14 -4 -16 -10 -3 -9 6 -13 26 -13 29 0 31 2 31 40 0 22 -2 40 -5 40
-3 0 -5 -9 -5 -21z"/>
<path d="M932 58 c-7 -7 -12 -20 -12 -29 0 -10 -6 -20 -12 -22 -7 -3 -3 -6 8
-6 17 -1 23 6 27 31 6 39 4 41 -11 26z"/>
<path d="M2382 30 c0 -19 2 -27 5 -17 2 9 2 25 0 35 -3 9 -5 1 -5 -18z"/>
<path d="M1932 20 c0 -14 2 -19 5 -12 2 6 2 18 0 25 -3 6 -5 1 -5 -13z"/>
<path d="M2042 20 c0 -14 2 -19 5 -12 2 6 2 18 0 25 -3 6 -5 1 -5 -13z"/>
<path d="M2132 20 c0 -14 2 -19 5 -12 2 6 2 18 0 25 -3 6 -5 1 -5 -13z"/>
<path d="M482 15 c-11 -13 -3 -15 57 -15 67 0 98 11 65 24 -30 12 -109 6 -122
-9z"/>
<path d="M997 24 c-16 -16 -4 -21 54 -23 46 -2 60 1 57 11 -5 14 -99 24 -111
12z"/>
<path d="M1951 14 c0 -11 3 -14 6 -6 3 7 2 16 -1 19 -3 4 -6 -2 -5 -13z"/>
<path d="M2151 14 c0 -11 3 -14 6 -6 3 7 2 16 -1 19 -3 4 -6 -2 -5 -13z"/>
<path d="M2311 14 c0 -11 3 -14 6 -6 3 7 2 16 -1 19 -3 4 -6 -2 -5 -13z"/>
<path d="M800 10 c-12 -8 -11 -10 7 -10 12 0 25 5 28 10 8 13 -15 13 -35 0z"/>
<path d="M1165 10 c3 -5 8 -10 11 -10 2 0 4 5 4 10 0 6 -5 10 -11 10 -5 0 -7
-4 -4 -10z"/>
<path d="M3620 10 c-12 -8 -11 -10 8 -10 12 0 22 5 22 10 0 13 -11 13 -30 0z"/>
</g>
</svg>
